<svg id="Capa_1" enable-background="new 0 0 512 512" height="512" viewBox="0 0 512 512" width="512" xmlns="http://www.w3.org/2000/svg"><g><path d="m279.439 370.381v-9.945c-8.217 5.621-38.662 5.621-46.879 0v9.945c0 5.483-4.445 9.927-9.927 9.927l28.572 33.264h9.59l28.572-33.264c-5.483 0-9.928-4.444-9.928-9.927z" fill="#ffddce"/><path d="m85.333 414.954c17.98 0 36.664-20.377 39.368-34.645h-6.001c-5.483 0-9.927-4.444-9.927-9.927v-9.945c-8.217 5.621-38.662 5.621-46.879 0v9.945c0 5.483-4.445 9.927-9.927 9.927h-6.001c-1.198 16.631 21.387 34.645 39.367 34.645z" fill="#ffe4c1"/><path d="m298.223 335.208c34.507-9.921 63.996-31.694 83.778-60.63 17.533-9.815 11.299-14.491 12.553-22.123 8.966-19.423 13.968-41.052 13.968-63.849 0-84.236-68.287-152.523-152.523-152.523s-152.522 68.287-152.522 152.523c0 22.829 5.016 44.486 14.006 63.931 1.662 12.644 6.348 16.888 12.622 22.196 19.781 28.859 49.227 50.572 83.672 60.475z" fill="#95d6a4"/><path d="m232.281 235.283c-5.4-8.87-16.966-11.682-25.836-6.283-8.869 5.399-11.682 16.966-6.283 25.836 3.455 5.676 7.778 10.58 12.744 14.588 10.977-3.02 21.573-13.424 27.035-27.138-3.112-1.513-5.777-3.909-7.66-7.003z" fill="#f1eaf9"/><path d="m247.986 207.407h16.03c10.122 0 18.357 8.236 18.357 18.359 0 7.265-4.243 13.558-10.38 16.532 8.132 15.548 11.188 27.014 27.118 27.014 12.716-10.264 20.863-25.97 20.863-43.547 0-30.857-25.103-55.96-55.959-55.96h-16.03c-10.123 0-18.359-8.236-18.359-18.359 0-10.122 8.236-18.358 18.359-18.358h16.03c6.464 0 12.335 3.304 15.703 8.839 5.401 8.869 16.969 11.682 25.835 6.284 8.87-5.399 11.683-16.966 6.285-25.835-8.339-13.699-21.728-22.905-37.038-25.861v-8.979c0-10.384-8.418-18.801-18.801-18.801-10.384 0-18.801 8.417-18.801 18.801v9.004c-25.712 5.042-45.174 27.74-45.174 54.906.002 30.857 25.105 55.961 55.962 55.961z" fill="#f1eaf9"/><path d="m330.204 55.32c65.22 90.361 37.29 186.192-28.212 231.915-.021.538-14.125 20.942-14.125 20.942s10.622 25.769 10.356 27.031c34.507-9.921 63.996-31.694 83.778-60.63 5.409-7.766 9.281-15.714 12.553-22.122 8.966-19.424 13.968-41.052 13.968-63.85.001-57.3-31.597-107.22-78.318-133.286z" fill="#78c2a4"/><path d="m211.993 314.579c-20.583-.37-40.17-4.819-57.988-12.57 16.928 15.235 37.284 26.734 59.772 33.199-.266-1.262 10.355-11.688 4.903-10.118z" fill="#78c2a4"/><circle cx="256.016" cy="424.408" r="7.726"/><circle cx="256.016" cy="450.162" r="7.726"/><circle cx="256.016" cy="424.408" r="7.726"/><circle cx="256.016" cy="450.162" r="7.726"/><g fill="#9dc6fb"><path d="m341.333 445.004v-31.536c0-18.314-14.846-33.16-33.16-33.16h-18.807l-27.268 17.507c-.852.547-1.842.837-2.854.837h-6.49c-1.012 0-2.003-.291-2.854-.837l-27.267-17.507h-18.807c-18.314 0-33.16 14.846-33.16 33.16v31.536l30.133 30.913h110.401z"/><path d="m193.073 468.187c-4.268 0-7.726-3.459-7.726-7.726v-23.667c0-4.268 3.459-7.726 7.726-7.726s7.726 3.459 7.726 7.726v23.667c0 4.267-3.458 7.726-7.726 7.726z"/><path d="m318.927 470.38c-4.268 0-7.726-3.459-7.726-7.726v-25.859c0-4.268 3.459-7.726 7.726-7.726s7.726 3.459 7.726 7.726v25.859c0 4.267-3.458 7.726-7.726 7.726z"/></g><path d="m478.84 380.308h-18.807l-28.572 29.347h-9.59l-28.571-29.347h-18.807c-18.314 0-33.16 14.846-33.16 33.16v59.757c0 1.486 1.205 2.691 2.691 2.691h165.284c1.487 0 2.692-1.205 2.692-2.692v-59.757c0-18.313-14.846-33.159-33.16-33.159z" fill="#617881"/><path d="m450.106 370.381v-9.945c-8.217 5.621-38.662 5.621-46.879 0v9.945c0 5.483-4.445 9.927-9.927 9.927l33.382 48.759 33.351-48.759c-5.482 0-9.927-4.444-9.927-9.927z" fill="#d59b8b"/><path d="m222.633 380.308-8.805 28.499c-.952 3.082 2.25 5.806 5.139 4.371l30.933-15.363z" fill="#bed8fb"/><path d="m289.367 380.308 8.805 28.499c.952 3.082-2.25 5.806-5.139 4.371l-30.933-15.363z" fill="#bed8fb"/><path d="m435.496 396.063c-2.634 1.691-5.699 2.591-8.83 2.591-3.131 0-6.195-.899-8.83-2.591l-24.536-15.755 33.367 95.608 33.367-95.608z" fill="#f1eaf9"/><path d="m137.507 380.308h-12.805c-6.04 14.569-21.388 24.921-39.368 24.921s-33.328-10.352-39.368-24.921h-12.806c-18.314 0-33.16 14.846-33.16 33.16v59.757c0 1.486 1.205 2.691 2.692 2.691h165.284c1.486 0 2.692-1.205 2.692-2.691v-59.757c-.001-18.314-14.847-33.16-33.161-33.16z" fill="#e28086"/><path d="m114.413 267.452c-6.796-6.796-54.288-7.345-61.084-.549l-13.447 28.06.593 8.048 2.087 28.336c1.65 22.403 29.269 37.929 42.772 37.929s41.122-15.526 42.772-37.929l2.061-27.984.38-5.164z" fill="#fff1dd"/><path d="m239.941 258.864-28.807 44.06.006.087 2.087 28.336c1.65 22.403 29.269 37.929 42.772 37.929s41.122-15.526 42.772-37.929l2.061-27.984.875-11.876s-50.83-20.715-61.766-32.623z" fill="#ffece4"/><path d="m426.087 239.45c-26.887.329-47.261 23.083-45.286 49.9l3.093 41.997c1.65 22.403 29.27 37.929 42.772 37.929s41.122-15.526 42.772-37.929l3.13-42.494c1.979-26.871-19.456-49.733-46.481-49.403z" fill="#dfaca0"/><path d="m37.859 436.794c0-4.268-3.459-7.726-7.726-7.726s-7.726 3.459-7.726 7.726v39.123h15.453v-39.123z" fill="#dd636e"/><path d="m148.261 436.794c0-4.268-3.459-7.726-7.726-7.726-4.268 0-7.726 3.459-7.726 7.726v39.123h15.453v-39.123z" fill="#dd636e"/><path d="m85.349 333.906c-4.268 0-7.726-3.459-7.726-7.726s3.459-7.726 7.726-7.726c.106 0 .192-.087.192-.193v-5.658c0-4.268 3.459-7.726 7.726-7.726 4.268 0 7.726 3.459 7.726 7.726v5.658c.001 8.626-7.017 15.645-15.644 15.645z" fill="#ffe4c1"/><path d="m256.015 333.906c-4.268 0-7.726-3.459-7.726-7.726s3.459-7.726 7.726-7.726c.107 0 .193-.087.193-.193v-5.658c0-4.268 3.459-7.726 7.726-7.726s7.726 3.459 7.726 7.726v5.658c.001 8.626-7.018 15.645-15.645 15.645z" fill="#ffddce"/><path d="m379.192 436.794c0-4.268-3.459-7.726-7.726-7.726s-7.726 3.459-7.726 7.726v39.123h15.453v-39.123z" fill="#475959"/><path d="m489.594 436.794c0-4.268-3.459-7.726-7.726-7.726-4.268 0-7.726 3.459-7.726 7.726v39.123h15.453v-39.123z" fill="#475959"/><path d="m426.682 333.906c-4.268 0-7.726-3.459-7.726-7.726s3.459-7.726 7.726-7.726c.106 0 .192-.087.192-.193v-5.658c0-4.268 3.459-7.726 7.726-7.726 4.268 0 7.726 3.459 7.726 7.726v5.658c.001 8.626-7.017 15.645-15.644 15.645z" fill="#d59b8b"/><path d="m77.94 281.516 2.258 2.258c2.18 2.18 5.714 2.18 7.894 0l1.709-1.709c6.796-6.796 17.815-6.796 24.611 0l16.134 16.134.688-9.345c1.979-26.871-19.456-49.734-46.481-49.403-26.888.329-47.261 23.083-45.286 49.9l.413 5.613 13.447-13.447c6.798-6.798 17.817-6.798 24.613-.001z" fill="#617881"/><path d="m242.913 274.617c10.801 10.802 25.451 16.87 40.727 16.87h18.067l.194-2.633c1.979-26.871-19.456-49.734-46.481-49.403-26.888.329-47.261 23.083-45.286 49.9l1 13.574 28.307-28.307c.959-.96 2.513-.96 3.472-.001z" fill="#ffd064"/><path d="m170.667 445.004v28.221c0 1.486 1.205 2.692 2.692 2.692h27.441v-30.913z" fill="#ffece4"/><path d="m311.201 445.004v30.913h27.441c1.487 0 2.692-1.205 2.692-2.692v-28.221z" fill="#ffece4"/><circle cx="256.016" cy="424.408" fill="#f9f6f9" r="7.726"/><circle cx="256.016" cy="450.162" fill="#f9f6f9" r="7.726"/></g></svg>