<svg xmlns="http://www.w3.org/2000/svg" viewBox="0 0 853.2 187.79"><g id="Capa_2" data-name="Capa 2"><g id="Capa_1-2" data-name="Capa 1"><path d="M237.61,96.54c0,14-9.08,24.84-25.9,24.84H197.65V71.69h14.06C228.53,71.69,237.61,82.55,237.61,96.54Zm-7.16,0c0-11.15-7-18.39-18.74-18.39h-7v36.77h7C223.49,114.92,230.45,107.68,230.45,96.54Z"/><path d="M263.3,84.54v7.31c-10.65-1.27-12,6.82-12,13.42v16.11h-6.46v-36h6.46v6.25A13.25,13.25,0,0,1,263.3,84.54Z"/><path d="M296.85,99.66v21.72h-6.46v-5c-1.63,2.77-6.11,5.89-11.78,5.89-6.82,0-12.78-4.11-12.78-10.57,0-11.29,13.7-11.57,18.74-11.57h5.82c0-5.47-1.14-9.73-8.59-9.73a16.84,16.84,0,0,0-9.3,3.2L268,90.15a22.48,22.48,0,0,1,15.12-5.61C293.44,84.54,296.85,91.07,296.85,99.66Zm-6.46,5.54H287.9c-6.67,0-15.4-.07-15.4,6.24,0,2.77,1.78,5.61,7.53,5.61,6.17,0,9.93-4.33,10.36-6Z"/><path d="M313.17,117.83a4.44,4.44,0,1,1-4.47-4.4A4.44,4.44,0,0,1,313.17,117.83Z"/><path d="M378.19,109.17l5.89,3.91a24.8,24.8,0,0,1-19.73,9.22c-14.69,0-25.27-11.21-25.27-25.76s10.58-25.7,25.27-25.7a24.6,24.6,0,0,1,19.73,9.23l-5.89,3.83a17.38,17.38,0,0,0-13.84-6.46c-11.57,0-18,9.44-18,19.1s6.46,19.09,18,19.09A17.35,17.35,0,0,0,378.19,109.17Z"/><path d="M418.87,99.66v21.72h-6.46v-5c-1.63,2.77-6.1,5.89-11.78,5.89-6.82,0-12.78-4.11-12.78-10.57,0-11.29,13.7-11.57,18.74-11.57h5.82c0-5.47-1.13-9.73-8.59-9.73a16.87,16.87,0,0,0-9.3,3.2L390,90.15a22.5,22.5,0,0,1,15.12-5.61C415.46,84.54,418.87,91.07,418.87,99.66Zm-6.46,5.54h-2.48c-6.68,0-15.41-.07-15.41,6.24,0,2.77,1.78,5.61,7.53,5.61,6.17,0,9.94-4.33,10.36-6Z"/><path d="M445.32,84.54v7.31c-10.64-1.27-12,6.82-12,13.42v16.11h-6.46v-36h6.46v6.25A13.24,13.24,0,0,1,445.32,84.54Z"/><path d="M485.19,103.42a18.88,18.88,0,1,1-18.88-18.88A18.64,18.64,0,0,1,485.19,103.42Zm-6.6,0c0-7.38-5.18-12.77-12.28-12.77S454.1,96,454.1,103.42s5.12,12.71,12.21,12.71S478.59,110.73,478.59,103.42Z"/><path d="M497.67,71.69v49.69h-6.46V71.69Z"/><path d="M505.27,75.31a3.69,3.69,0,0,1,7.38,0,3.69,3.69,0,1,1-7.38,0Zm.42,10.08h6.53v36h-6.53Z"/><path d="M551.66,98.88v22.5H545.2V100.73c0-5-2.13-10.08-8.87-10.08s-9.59,5.89-9.59,10.08v20.65h-6.45v-36h6.45v5a12.84,12.84,0,0,1,11.15-5.89C546,84.54,551.66,91.29,551.66,98.88Z"/><path d="M588.09,99.66v21.72h-6.46v-5c-1.63,2.77-6.1,5.89-11.78,5.89-6.81,0-12.78-4.11-12.78-10.57,0-11.29,13.7-11.57,18.74-11.57h5.82c0-5.47-1.13-9.73-8.58-9.73a16.81,16.81,0,0,0-9.3,3.2l-4.55-3.48a22.51,22.51,0,0,1,15.12-5.61C584.69,84.54,588.09,91.07,588.09,99.66Zm-6.46,5.54h-2.48c-6.67,0-15.4-.07-15.4,6.24,0,2.77,1.77,5.61,7.52,5.61,6.18,0,9.94-4.33,10.36-6Z"/><path d="M644.38,114.92v6.46H616.84V71.69h7.1v43.23Z"/><path d="M684.75,103.42a18.88,18.88,0,1,1-18.88-18.88A18.64,18.64,0,0,1,684.75,103.42Zm-6.6,0c0-7.38-5.18-12.77-12.28-12.77S653.66,96,653.66,103.42s5.12,12.71,12.21,12.71S678.15,110.73,678.15,103.42Z"/><path d="M722.05,98.88v22.5h-6.46V100.73c0-5-2.13-10.08-8.87-10.08s-9.59,5.89-9.59,10.08v20.65h-6.46v-36h6.46v5a12.84,12.84,0,0,1,11.15-5.89C716.37,84.54,722.05,91.29,722.05,98.88Z"/><path d="M764.32,85.39v32.23c0,10.22-5.46,18.1-18.45,18.1-7.1,0-13.42-2.84-16.33-7.24l5.54-3.27c1.35,2,4.83,4.41,10.79,4.41,8.59,0,11.92-5.47,11.92-12.64v-2.77a14.12,14.12,0,0,1-12.2,6.18c-10.58,0-18-9-18-18a18.14,18.14,0,0,1,18-17.89,14.24,14.24,0,0,1,12.2,6.11V85.39Zm-6.53,17c0-6.74-4.68-11.78-11.57-11.78a11.82,11.82,0,1,0,0,23.63C753.11,114.28,757.79,109.24,757.79,102.43Z"/><path d="M778.86,71.69v49.69H772.4V71.69Z"/><path d="M815.49,99.66v21.72H809v-5c-1.63,2.77-6.1,5.89-11.78,5.89-6.81,0-12.78-4.11-12.78-10.57,0-11.29,13.7-11.57,18.74-11.57H809c0-5.47-1.13-9.73-8.58-9.73a16.81,16.81,0,0,0-9.3,3.2l-4.55-3.48a22.51,22.51,0,0,1,15.12-5.61C812.09,84.54,815.49,91.07,815.49,99.66ZM809,105.2h-2.48c-6.67,0-15.4-.07-15.4,6.24,0,2.77,1.77,5.61,7.52,5.61,6.18,0,9.94-4.33,10.36-6Z"/><path d="M845.2,121.38l-8.8-13-8.8,13h-7.88l12.56-18.52-12-17.47h8l8.1,12.71,8.23-12.71h8l-12.07,17.54,12.64,18.45Z"/><path d="M610.09,154.65v2.16H597v-2.16Z"/><path d="M401.29,153.59a14.42,14.42,0,1,1-14.44-14.77A14.52,14.52,0,0,1,401.29,153.59Zm-2.16,0a12.26,12.26,0,1,0-12.28,12.6A12.34,12.34,0,0,0,399.13,153.59Z"/><path d="M425,139.31v28.55h-2.16V164a9.48,9.48,0,0,1-8.15,4.4c-6,0-10.32-4.89-10.32-10.85s4.36-10.85,10.32-10.85a9.4,9.4,0,0,1,8.15,4.41V139.31Zm-2.16,18.23c0-4.77-3.38-8.68-8.15-8.68s-8.12,3.91-8.12,8.68,3.34,8.65,8.12,8.65S422.81,162.31,422.81,157.54Z"/><path d="M450.35,157.54a10.73,10.73,0,1,1-10.73-10.85A10.76,10.76,0,0,1,450.35,157.54Zm-2.17,0a8.56,8.56,0,1,0-8.56,8.65A8.61,8.61,0,0,0,448.18,157.54Z"/><path d="M536.61,157.54a10.73,10.73,0,1,1-10.72-10.85A10.76,10.76,0,0,1,536.61,157.54Zm-2.16,0a8.57,8.57,0,1,0-8.56,8.65A8.61,8.61,0,0,0,534.45,157.54Z"/><path d="M471.5,155.67v12.19h-2.16V155.67c0-2.86-1.35-6.81-6.12-6.81a6.73,6.73,0,0,0-6.85,6.81v12.19h-2.16V147.18h2.16v3.27a7.74,7.74,0,0,1,6.85-3.76C469.18,146.69,471.5,151.63,471.5,155.67Z"/><path d="M484.55,165.82V168c-3.34.33-7.06,0-7.06-6.28V149.39h-3.63v-2.21h3.63v-4.32h2.17v4.32h4.85v2.21h-4.85V161.7C479.66,164.76,480.55,166.19,484.55,165.82Z"/><path d="M507.27,157.54a10.73,10.73,0,1,1-10.73-10.85A10.76,10.76,0,0,1,507.27,157.54Zm-2.17,0a8.56,8.56,0,1,0-8.56,8.65A8.61,8.61,0,0,0,505.1,157.54Zm-4.4-19.12L497,143.76h-1.35l2.49-5.34Z"/><path d="M512.74,139.31v28.55h-2.16V139.31Z"/><path d="M559.07,147.18V165.7c0,5.26-3.55,10.4-10.49,10.4a11.07,11.07,0,0,1-8.89-4l1.84-1.22a8.51,8.51,0,0,0,7.05,3.06c5.8,0,8.28-4.16,8.28-8.24v-3a9.1,9.1,0,0,1-8.11,4.61,10.3,10.3,0,1,1,0-20.6,9,9,0,0,1,8.11,4.61v-4.12ZM556.86,157a8.14,8.14,0,1,0-8.11,8.12A8,8,0,0,0,556.86,157Z"/><path d="M579.3,167.86h-2.17v-3.18a8.32,8.32,0,0,1-7.21,3.71c-4.12,0-7.18-2.57-7.18-6.16,0-6.48,7.87-6.4,13.74-6.4.21,0,.45,0,.65,0v-1.39c0-2.85-1.3-5.62-5.38-5.62a9,9,0,0,0-5.87,2.24l-1.76-1.35a11.09,11.09,0,0,1,7.63-3.06c4.61,0,7.55,2.94,7.55,7.79Zm-2.17-6.24V158h-.69c-4.77,0-11.46-.45-11.46,4.2,0,2.69,2.53,4,4.94,4C574.56,166.19,576.6,163.25,577.13,161.62Z"/><path d="M655.65,153.59a14.42,14.42,0,1,1-14.44-14.77A14.52,14.52,0,0,1,655.65,153.59Zm-2.17,0a12.26,12.26,0,1,0-12.27,12.6A12.34,12.34,0,0,0,653.48,153.59Z"/><path d="M669.75,146.69v2.53c-4.57,0-7.34,2.9-7.34,8.12v10.52h-2.2V147.18h2.2v4.45C663.84,148.86,666.37,146.69,669.75,146.69Z"/><path d="M682.57,165.82V168c-3.34.33-7.06,0-7.06-6.28V149.39h-3.63v-2.21h3.63v-4.32h2.17v4.32h4.85v2.21h-4.85V161.7C677.68,164.76,678.57,166.19,682.57,165.82Z"/><path d="M705.29,157.54a10.73,10.73,0,1,1-10.73-10.85A10.76,10.76,0,0,1,705.29,157.54Zm-2.17,0a8.56,8.56,0,1,0-8.56,8.65A8.61,8.61,0,0,0,703.12,157.54Z"/><path d="M728.47,139.31v28.55h-2.16V164a9.49,9.49,0,0,1-8.16,4.4c-5.95,0-10.32-4.89-10.32-10.85s4.37-10.85,10.32-10.85a9.41,9.41,0,0,1,8.16,4.41V139.31Zm-2.16,18.23c0-4.77-3.39-8.68-8.16-8.68s-8.12,3.91-8.12,8.68,3.35,8.65,8.12,8.65S726.31,162.31,726.31,157.54Z"/><path d="M753.84,157.54a10.73,10.73,0,1,1-10.73-10.85A10.76,10.76,0,0,1,753.84,157.54Zm-2.16,0a8.57,8.57,0,1,0-8.57,8.65A8.61,8.61,0,0,0,751.68,157.54Z"/><path d="M775,155.67v12.19h-2.16V155.67c0-2.86-1.35-6.81-6.12-6.81a6.73,6.73,0,0,0-6.85,6.81v12.19H757.7V147.18h2.17v3.27a7.72,7.72,0,0,1,6.85-3.76C772.67,146.69,775,151.63,775,155.67Z"/><path d="M796.54,162.48l2,1a10.84,10.84,0,1,1,0-11.95l-2,1.06a8.46,8.46,0,0,0-7-3.75,8.67,8.67,0,0,0,0,17.33A8.43,8.43,0,0,0,796.54,162.48Z"/><path d="M801.44,141.39a1.43,1.43,0,1,1,1.43,1.47A1.41,1.41,0,0,1,801.44,141.39Zm.32,5.79H804v20.68h-2.21Z"/><path d="M822.07,162.19c0,3.1-2.2,6.2-7.22,6.2-3.91,0-6.6-2.24-7.38-4.73l2-.69c.53,1.67,2.49,3.22,5.34,3.22,3.1,0,5.06-1.55,5.06-4,0-2.24-1.59-2.93-4.94-3.63-3.05-.61-6.81-1.75-6.81-5.87,0-3.34,2.74-6,6.49-6a6.41,6.41,0,0,1,6.44,4.61l-2.12.57a4.19,4.19,0,0,0-4.32-3c-2.53,0-4.28,1.67-4.28,3.83,0,2.32,2,3.1,5.13,3.79C818.44,157.09,822.07,158,822.07,162.19Z"/><path d="M834.25,165.82V168c-3.35.33-7.06,0-7.06-6.28V149.39h-3.63v-2.21h3.63v-4.32h2.16v4.32h4.86v2.21h-4.86V161.7C829.35,164.76,830.25,166.19,834.25,165.82Z"/><path d="M853.2,167.86H851v-3.18a8.35,8.35,0,0,1-7.22,3.71c-4.12,0-7.18-2.57-7.18-6.16,0-6.48,7.87-6.4,13.74-6.4.21,0,.45,0,.66,0v-1.39c0-2.85-1.31-5.62-5.39-5.62a9.06,9.06,0,0,0-5.87,2.24L838,149.75a11.07,11.07,0,0,1,7.62-3.06c4.61,0,7.55,2.94,7.55,7.79ZM851,161.62V158h-.7c-4.77,0-11.46-.45-11.46,4.2,0,2.69,2.53,4,4.94,4C848.47,166.19,850.51,163.25,851,161.62Z"/><path d="M204.68,139.86s-5.18,21.81-10.6,30.93-7.27,8.87-28,13.18S70,194.94,12.32,165.12A209.26,209.26,0,0,1,0,95.76C0,57.51,12.32,22.67,12.32,22.67,70-7.15,145.41-.5,166.11,3.82s22.55,4.06,28,13.18,10.6,30.93,10.6,30.93-16.36.18-17.44.12a5.89,5.89,0,0,0-.92-1.1,150.38,150.38,0,0,0-14.84-12.33q-5.47-4-10.53-8.51a90.9,90.9,0,1,0,0,135.57q5.06-4.52,10.52-8.51a153.23,153.23,0,0,0,14.84-12.33,5.89,5.89,0,0,0,.92-1.1C188.32,139.68,204.68,139.86,204.68,139.86Z"/><path d="M101,176.8a82.66,82.66,0,1,1,32.81-6.75A82.83,82.83,0,0,1,101,176.8Zm0-162.9a80,80,0,1,0,57.34,24.22A79.92,79.92,0,0,0,101,13.9Z"/><path d="M63.68,70.06V72H55.5V57.22h2.11V70.06Z"/><path d="M65.29,61.29h1.94V72H65.29ZM69,56.65l-2,3H65.58l1.4-3Z"/><path d="M79,65.29V72H77.09V65.84c0-1.49-.63-3-2.63-3a2.87,2.87,0,0,0-2.85,3V72H69.7V61.29h1.91v1.5A3.82,3.82,0,0,1,74.92,61,4.14,4.14,0,0,1,79,65.29Z"/><path d="M91.32,67.47h-8.5a3.46,3.46,0,0,0,3.69,3,3.57,3.57,0,0,0,2.81-1.2l1.58,1a5.3,5.3,0,0,1-4.39,2A5.61,5.61,0,0,1,86.2,61C89.11,61,91.83,63.48,91.32,67.47Zm-1.94-1.65a3.09,3.09,0,0,0-3.18-3,3.32,3.32,0,0,0-3.38,3Z"/><path d="M101.61,65.53V72H99.69V70.5a4.17,4.17,0,0,1-3.49,1.75c-2,0-3.8-1.22-3.8-3.14,0-3.35,4.07-3.44,5.57-3.44h1.72c0-1.62-.33-2.88-2.55-2.88a5,5,0,0,0-2.76.94L93,62.7A6.71,6.71,0,0,1,97.52,61C100.6,61,101.61,63,101.61,65.53Zm-1.92,1.64H99c-2,0-4.58,0-4.58,1.86,0,.82.53,1.66,2.24,1.66a3.32,3.32,0,0,0,3.07-1.77Z"/><path d="M124.61,64.6A7.5,7.5,0,1,1,117.13,57,7.37,7.37,0,0,1,124.61,64.6Zm-2.13,0c0-2.87-1.91-5.67-5.35-5.67a5.68,5.68,0,0,0,0,11.34C120.57,70.27,122.48,67.47,122.48,64.6Z"/><path d="M132.28,61v2.17c-3.16-.38-3.56,2-3.56,4V72H126.8V61.29h1.92v1.85A3.93,3.93,0,0,1,132.28,61Z"/><path d="M142.31,65.53V72H140.4V70.5a4.21,4.21,0,0,1-3.5,1.75c-2,0-3.8-1.22-3.8-3.14,0-3.35,4.07-3.44,5.57-3.44h1.73c0-1.62-.34-2.88-2.56-2.88a5,5,0,0,0-2.76.94l-1.35-1A6.71,6.71,0,0,1,138.22,61C141.3,61,142.31,63,142.31,65.53Zm-1.91,1.64h-.74c-2,0-4.58,0-4.58,1.86,0,.82.53,1.66,2.24,1.66a3.35,3.35,0,0,0,3.08-1.77Z"/><path d="M146.68,57.22V72h-1.91V57.22Z"/><path d="M48.69,92.54v1.91H40.34V79.7h8.14v1.92h-6v4.23H48v1.92H42.47v4.77Z"/><path d="M58.46,91.25c0,1.9-1.35,3.48-4.2,3.48-2.11,0-3.88-.84-4.3-2.45l1.88-.63C52,92.2,52.57,93,54.3,93c1.39,0,2.17-.57,2.17-1.52,0-1.24-1.79-1.24-3.26-1.58-2-.44-2.87-1.41-2.87-3,0-2,1.62-3.36,3.94-3.36A3.52,3.52,0,0,1,57.93,86l-1.79.48a2,2,0,0,0-2-1.22c-1,0-1.83.59-1.83,1.48,0,1.2,1.48,1.28,2.7,1.54C57.59,88.8,58.46,89.65,58.46,91.25Z"/><path d="M71.34,89.12A5.39,5.39,0,0,1,66,94.73,4.75,4.75,0,0,1,62.12,93v5.56H60.21V83.77h1.91v1.49A4.79,4.79,0,0,1,66,83.51,5.39,5.39,0,0,1,71.34,89.12Zm-2,0a3.5,3.5,0,0,0-3.55-3.79,3.78,3.78,0,0,0,0,7.56A3.48,3.48,0,0,0,69.38,89.12Z"/><path d="M83.12,89.94h-8.5a3.46,3.46,0,0,0,3.69,3,3.54,3.54,0,0,0,2.81-1.2l1.58,1a5.28,5.28,0,0,1-4.39,2A5.61,5.61,0,0,1,78,83.51C80.91,83.51,83.63,86,83.12,89.94ZM81.18,88.3a3.09,3.09,0,0,0-3.18-3,3.32,3.32,0,0,0-3.38,3Z"/><path d="M93.07,91.19l1.64.88A5.48,5.48,0,0,1,90,94.73a5.61,5.61,0,1,1,4.74-8.58l-1.64.9A3.55,3.55,0,0,0,90,85.33a3.78,3.78,0,0,0,0,7.56A3.54,3.54,0,0,0,93.07,91.19Z"/><path d="M96.08,80.77a1.1,1.1,0,1,1,1.1,1.1A1.1,1.1,0,0,1,96.08,80.77Zm.13,3h1.94V94.45H96.21Z"/><path d="M109,88v6.45h-1.91V93a4.21,4.21,0,0,1-3.5,1.75c-2,0-3.8-1.22-3.8-3.14,0-3.35,4.07-3.44,5.57-3.44h1.73c0-1.62-.34-2.89-2.56-2.89a5,5,0,0,0-2.76.95l-1.35-1a6.67,6.67,0,0,1,4.49-1.67C108,83.51,109,85.45,109,88Zm-1.91,1.65h-.74c-2,0-4.58,0-4.58,1.85,0,.83.53,1.67,2.24,1.67a3.37,3.37,0,0,0,3.08-1.77Z"/><path d="M113.4,79.7V94.45h-1.91V79.7Z"/><path d="M115.73,80.77a1.1,1.1,0,1,1,1.09,1.1A1.09,1.09,0,0,1,115.73,80.77Zm.12,3h1.94V94.45h-1.94Z"/><path d="M127.5,92.64v1.81h-8.1V92.89l5.46-7.29h-5.29V83.77h7.74v1.56l-5.49,7.31Z"/><path d="M137.92,88v6.45H136V93a4.18,4.18,0,0,1-3.5,1.75c-2,0-3.79-1.22-3.79-3.14,0-3.35,4.07-3.44,5.57-3.44H136c0-1.62-.33-2.89-2.55-2.89a5,5,0,0,0-2.76.95l-1.35-1a6.67,6.67,0,0,1,4.49-1.67C136.91,83.51,137.92,85.45,137.92,88ZM136,89.65h-.73c-2,0-4.58,0-4.58,1.85,0,.83.53,1.67,2.24,1.67A3.34,3.34,0,0,0,136,91.4Z"/><path d="M150.86,79.7V94.45h-1.92V93a4.67,4.67,0,0,1-3.87,1.77,5.62,5.62,0,0,1,0-11.22,4.72,4.72,0,0,1,3.87,1.75V79.7Zm-1.92,9.42a3.54,3.54,0,0,0-3.68-3.79,3.79,3.79,0,0,0,0,7.56A3.53,3.53,0,0,0,148.94,89.12Z"/><path d="M161.84,88v6.45h-1.92V93a4.18,4.18,0,0,1-3.5,1.75c-2,0-3.79-1.22-3.79-3.14,0-3.35,4.07-3.44,5.57-3.44h1.72c0-1.62-.33-2.89-2.55-2.89a5,5,0,0,0-2.76.95l-1.35-1a6.67,6.67,0,0,1,4.49-1.67C160.83,83.51,161.84,85.45,161.84,88Zm-1.92,1.65h-.73c-2,0-4.58,0-4.58,1.85,0,.83.53,1.67,2.24,1.67a3.34,3.34,0,0,0,3.07-1.77Z"/><path d="M89.5,142.12l4.82-3.49q7.56-5.44,15.11-10.9a4.17,4.17,0,0,0,.73-.92,4.71,4.71,0,0,0-.91-.59Q88.32,118.57,67.4,111a4,4,0,0,0-1.77-.19q-9.54,1.42-19.06,2.92a1.85,1.85,0,0,0-.79.47,2.81,2.81,0,0,1-4.08,0,3,3,0,0,1,.15-4.2,2.82,2.82,0,0,1,4.08,0,1.42,1.42,0,0,0,1,.33c6.39-1,12.77-2,19.16-2.9a3.65,3.65,0,0,1,1.68.27q21.75,7.9,43.51,15.81a13.68,13.68,0,0,0,3.28.49c2.48.24,4.69-.89,7-1.49,7.59-2,15.16-4,22.73-6.05.21-.06.42-.14.54-.18a25.75,25.75,0,0,1-3.08-2.34,7.29,7.29,0,0,1,3.35-12.46c5.16-1.43,10.78,2.87,10.53,8.2a19,19,0,0,1-1.06,4.06,6.27,6.27,0,0,0,1-.78A3.13,3.13,0,1,1,160.4,117a3,3,0,0,1-4.48.23,1.21,1.21,0,0,0-1.38-.24l-29,7.78L117.33,127a1.83,1.83,0,0,0-1.59,2.28c.25,2.44.57,4.87.86,7.31q.83,6.89,1.66,13.75c.2,1.67.4,3.34.59,5,0,.15,0,.31,0,.63Zm25.58,8.58c-.86-7.09-1.69-14-2.56-21.23L95.75,141.54ZM148,113.43c3.54.07,5.6-3.08,4-6.11a5.54,5.54,0,0,0-6.18-2.71,4,4,0,0,0-2.77,5.54A5.39,5.39,0,0,0,148,113.43Z"/></g></g></svg>