<?xml version="1.0" encoding="UTF-8"?>
<!DOCTYPE svg PUBLIC "-//W3C//DTD SVG 1.1//EN" "http://www.w3.org/Graphics/SVG/1.1/DTD/svg11.dtd">
<!-- Creator: CorelDRAW 2020 (64-Bit) -->
<svg xmlns="http://www.w3.org/2000/svg" xml:space="preserve" width="84.8054mm" height="40.5654mm" version="1.1" style="shape-rendering:geometricPrecision; text-rendering:geometricPrecision; image-rendering:optimizeQuality; fill-rule:evenodd; clip-rule:evenodd"
viewBox="0 0 8480.54 4056.54"
 xmlns:xlink="http://www.w3.org/1999/xlink"
 xmlns:xodm="http://www.corel.com/coreldraw/odm/2003">
 <defs>
  <style type="text/css">
   <![CDATA[
    .str0 {stroke:#373435;stroke-width:20;stroke-miterlimit:22.9256}
    .str1 {stroke:gold;stroke-width:20;stroke-miterlimit:22.9256}
    .str2 {stroke:#373435;stroke-width:7.62;stroke-miterlimit:22.9256}
    .fil1 {fill:none}
    .fil3 {fill:none;fill-rule:nonzero}
    .fil0 {fill:#373435}
    .fil2 {fill:gold;fill-rule:nonzero}
   ]]>
  </style>
 </defs>
 <g id="Capa_x0020_1">
  <metadata id="CorelCorpID_0Corel-Layer"/>
  <path class="fil0 str0" d="M2970.98 2956.05c104.08,0 190.39,-76.02 206.51,-175.52 1.78,-10.96 2.7,-22.22 2.7,-33.69 0,-115.55 -93.66,-209.24 -209.21,-209.24 -93.12,0 -172.02,60.85 -199.15,144.94 -6.53,20.27 -10.06,41.87 -10.06,64.3 0,115.52 93.67,209.21 209.21,209.21z"/>
  <path class="fil0 str0" d="M3633.41 423.26c4.09,111.92 96.11,201.41 209.06,201.41 107.83,0 196.58,-81.57 207.98,-186.34 0.82,-7.51 1.23,-15.15 1.23,-22.87 0,-115.54 -93.66,-209.23 -209.21,-209.23 -115.55,0 -209.21,93.69 -209.21,209.23 0,2.6 0.05,5.2 0.15,7.8z"/>
  <path class="fil0 str0" d="M4122.87 453.81c-13.02,27.26 -20.3,57.76 -20.3,89.98 0,115.52 93.67,209.21 209.21,209.21 91.56,0 169.35,-58.81 197.75,-140.7 7.43,-21.47 11.47,-44.51 11.47,-68.51 0,-115.55 -93.67,-209.23 -209.22,-209.23 -83.32,0 -155.28,48.73 -188.91,119.25z"/>
  <path class="fil0 str0" d="M4576.18 655.12c-28.88,35.88 -46.16,81.48 -46.16,131.11 0,115.52 93.66,209.21 209.21,209.21 54.11,0 103.44,-20.55 140.57,-54.26 42.15,-38.27 68.64,-93.54 68.64,-154.95 0,-115.55 -93.66,-209.24 -209.21,-209.24 -65.91,0 -124.7,30.48 -163.05,78.13z"/>
  <path class="fil0 str0" d="M4926.87 1006.14c-72.78,32.76 -123.45,105.9 -123.45,190.9 0,115.52 93.67,209.21 209.21,209.21 31.89,0 62.14,-7.15 89.19,-19.91 70.93,-33.48 120.02,-105.67 120.02,-189.3 0,-115.55 -93.66,-209.24 -209.21,-209.24 -30.55,0 -59.58,6.56 -85.76,18.34z"/>
  <path class="fil0 str0" d="M5038.22 2548.95c0,-68.82 -33.22,-129.9 -84.53,-168.04 -34.82,-25.87 -77.95,-41.2 -124.68,-41.2 -115.55,0 -209.21,93.69 -209.21,209.24 0,56.88 22.71,108.5 59.59,146.2 37.98,38.88 90.99,63.01 149.62,63.01 115.55,0 209.21,-93.69 209.21,-209.21z"/>
  <path class="fil0 str0" d="M4657.68 2850.69c0,-41.38 -12.01,-79.96 -32.74,-112.41 -37.13,-58.23 -102.3,-96.83 -176.47,-96.83 -115.55,0 -209.21,93.69 -209.21,209.24 0,29.96 6.3,58.43 17.64,84.2 32.41,73.6 105.99,125.01 191.57,125.01 115.55,0 209.21,-93.69 209.21,-209.21z"/>
  <path class="fil0 str0" d="M3973.7 3211.3c115.55,0 209.22,-93.69 209.22,-209.21 0,-14.48 -1.47,-28.63 -4.27,-42.28 -19.55,-95.29 -103.88,-166.96 -204.95,-166.96 -115.54,0 -209.21,93.69 -209.21,209.24 0,3.85 0.11,7.66 0.31,11.47 5.97,110.19 97.21,197.74 208.9,197.74z"/>
  <path class="fil0 str0" d="M3460.16 3183.91c104.07,0 190.38,-76.02 206.51,-175.52 1.77,-10.96 2.7,-22.22 2.7,-33.69 0,-115.55 -93.67,-209.24 -209.21,-209.24 -93.13,0 -172.03,60.85 -199.16,144.94 -6.53,20.27 -10.05,41.87 -10.05,64.3 0,115.52 93.66,209.21 209.21,209.21z"/>
  <path class="fil1 str1" d="M3660.31 342.57c46.3,-4.54 93.3,-6.86 140.86,-6.86 82.51,0 163.4,6.99 241.98,20.41m132.16 29.11c122.62,33.23 238.53,82.4 345.26,145.04m114.12 74.66c109.45,79.42 206.75,174.07 288.63,280.78m71.72 102.81c70.1,110.87 124.66,232.26 160.67,361.13m-153.28 1082.21c-70.92,114.7 -158.36,218.45 -259.08,308.02m-89.08 72.93c-105.18,79.13 -222.1,143.99 -347.68,191.6m-128.32 41.76c-120.02,32.77 -246.47,50.33 -377.1,50.33 -4.75,0 -9.51,-0.02 -14.22,-0.07m-150.35 -9.31c-135.23,-15.52 -264.65,-49.91 -385.32,-100.42m-151.97 -74.62c-122.53,-69.57 -233.36,-156.86 -328.89,-258.24"/>
  <path class="fil1 str1" d="M3655.69 440.73c43.36,-4.19 87.4,-6.34 131.94,-6.34 88.82,0 175.6,8.55 259.49,24.75m67.38 14.84c138.36,34.24 268,89.7 384.88,162.56m61.29 40.62c112.49,79.16 211.57,175.14 293.16,284.11m43.18 61.35c75.67,114.49 132.93,241.52 167.71,377.08m-146.75 959.82c-70.85,114.71 -159.82,217.78 -263.11,305.39m-53.47 43.01c-106.57,81.26 -226.48,146.91 -355.96,193.4m-76.65 24.95c-120.65,35.24 -248.62,54.23 -381.15,54.23 -7.35,0 -14.71,-0.07 -22.01,-0.18m-96.25 -4.89c-139.26,-11.99 -272.32,-45.02 -395.71,-95.7m-110.04 -51.21c-128.1,-66.87 -243.44,-153.74 -341.56,-256.24"/>
  <path class="fil2" d="M3326.48 2307.49l35.27 -122.49c74.85,-12.68 143.52,-63.72 205.69,-152.8 62.18,-89.09 133.94,-244.36 215.6,-465.53 -13.92,-13.92 -24.13,-29.38 -30.93,-46.39 -6.5,-17.02 -9.9,-36.19 -9.9,-57.85 0,-43.61 12.06,-79.8 35.88,-108.57 23.82,-28.76 53.82,-42.99 90.01,-42.99 33.41,0 59.7,8.97 78.88,27.22 19.48,18.25 29.07,42.37 29.07,72.38 0,14.54 -1.54,28.15 -4.64,40.52 -2.78,12.37 -7.73,25.05 -14.54,37.74 30.94,19.17 70.84,42.37 119.71,69.59 88.77,47.95 133.32,95.27 133.32,142.6 0,39.9 -24.13,110.12 -72.38,211.26 -48.26,100.84 -72.38,169.51 -72.38,205.7 0,21.65 8.35,37.12 24.74,45.78 16.7,8.66 59.7,16.08 128.99,22.27l-35.27 121.56 -27.22 0c-108.88,0 -187.13,-12.68 -234.77,-37.74 -47.94,-25.05 -71.76,-65.57 -71.76,-121.87 0,-50.11 22.89,-124.65 68.67,-223.63 45.47,-98.68 68.36,-162.09 68.36,-189.93 0,-13.3 -7.74,-26.91 -23.51,-41.13 -15.78,-14.23 -42.38,-32.17 -79.8,-54.14 -81.05,234.16 -164.56,402.43 -250.55,504.81 -85.99,102.39 -188.07,156.83 -306.54,163.63z"/>
  <path id="1" class="fil2" d="M4185.15 2307.49l34.64 -122.49c63.41,-2.47 116.93,-32.17 161.16,-88.77 43.92,-56.92 84.13,-149.09 120.32,-276.53 16.09,-58.16 33.41,-128.68 51.35,-211.27 25.36,-116.61 64.03,-175.07 115.99,-175.07 48.88,0 83.52,2.78 103.94,8.66 20.72,5.57 30.93,15.16 30.93,28.46 0,10.2 -19.18,62.17 -57.23,155.58 -38.04,93.42 -71.45,183.74 -100.53,271.58 100.22,-161.77 184.98,-276.84 254.26,-345.19 68.98,-68.36 134.87,-102.39 197.04,-102.39 36.19,0 64.96,10.21 86.61,30.31 21.34,20.42 31.86,47.95 31.86,82.9 0,24.13 -9.28,61.56 -27.84,112.28 -18.87,50.73 -49.49,122.49 -92.49,214.67 117.85,-180.33 207.56,-299.11 269.11,-355.41 61.56,-56.6 124.35,-84.75 187.76,-84.75 43.3,0 77.64,10.83 102.69,32.48 25.06,21.96 37.74,51.04 37.74,88.16 0,42.68 -38.36,158.06 -115.38,346.12l-14.54 36.19c-13.92,33.72 -25.05,66.51 -33.71,98.37 -8.35,31.55 -12.68,54.44 -12.68,68.36 0,21.65 8.97,37.42 26.91,46.7 17.63,9.28 51.34,15.47 100.22,18.56l-34.34 122.49 -11.13 0c-104.24,0 -180.34,-12.99 -227.66,-38.97 -47.33,-25.99 -71.14,-67.43 -71.14,-124.35 0,-38.66 24.43,-117.85 73.61,-237.56 13.92,-34.33 24.75,-60.93 32.48,-79.8 22.27,-57.22 37.12,-96.82 44.54,-118.78 7.12,-21.65 10.83,-37.12 10.83,-46.09 0,-10.82 -1.86,-18.56 -5.57,-23.19 -3.4,-4.64 -9.59,-6.81 -17.94,-6.81 -26.6,0 -76.71,46.71 -150.64,140.12 -73.61,93.42 -141.97,202.6 -204.77,327.57 -17.01,34.64 -34.02,74.55 -51.65,120.01 -21.65,55.99 -57.54,84.14 -107.95,84.14 -45.16,0 -76.71,-2.78 -94.04,-8.04 -17.63,-5.57 -26.29,-15.16 -26.29,-29.08 0,-10.82 13.92,-48.56 42.07,-113.21 28.15,-64.96 51.35,-120.32 69.29,-167.03 47.01,-118.47 77.02,-196.73 89.39,-235.39 12.37,-38.36 18.56,-66.2 18.56,-83.83 0,-11.44 -3.1,-20.1 -9.59,-26.29 -6.19,-5.88 -14.85,-8.97 -25.98,-8.97 -30.01,0 -81.97,45.16 -155.28,135.48 -73.31,90.63 -133.63,189 -180.64,295.4 -20.73,45.78 -40.83,93.72 -60.94,143.52 -19.8,50.11 -30.93,76.41 -33.41,79.5 -7.73,8.97 -19.79,15.47 -35.88,19.49 -15.77,4.02 -41.75,5.87 -77.33,5.87 -23.5,0 -40.21,-2.16 -50.41,-6.8 -9.9,-4.64 -14.85,-12.07 -14.85,-22.27 0,-8.35 5.57,-25.99 16.39,-52.59 1.86,-4.33 2.79,-7.73 3.4,-10.2 -25.67,26.91 -56.29,47.63 -90.94,62.17 -34.95,14.85 -75.16,23.51 -120.32,25.98z"/>
  <path id="2" class="fil2" d="M6488.95 1635.65c-16.39,-12.68 -32.47,-21.96 -48.56,-28.15 -16.08,-5.87 -32.17,-8.97 -48.56,-8.97 -35.88,0 -76.71,15.47 -123.11,46.4 -46.09,30.62 -90.32,72.69 -132.7,125.89 -38.66,48.88 -69.6,100.84 -92.18,155.59 -22.58,54.75 -34.02,102.69 -34.02,143.83 0,29.39 5.26,51.35 15.47,65.58 10.2,14.23 25.98,21.34 47.01,21.34 59.39,0 124.35,-44.23 195.18,-132.39 70.84,-88.15 144.45,-218.07 221.47,-389.12zm-92.48 343.65c-64.65,115.07 -128.68,198.9 -192.09,252.1 -63.41,53.2 -131.46,79.8 -204.15,79.8 -34.33,0 -64.34,-4.95 -90.01,-14.53 -25.67,-9.59 -45.78,-23.82 -60.32,-42.69 -30.31,16.39 -64.65,28.77 -103.31,37.74 -38.67,8.66 -84.13,13.92 -136.1,15.77l36.5 -122.49c33.1,-1.85 62.79,-5.88 89.08,-12.68 26.29,-6.5 50.11,-15.78 71.15,-27.84 -2.17,-12.68 -4.02,-25.98 -5.26,-39.59 -1.24,-13.3 -1.86,-28.15 -1.86,-43.93 0,-50.1 10.83,-104.85 32.48,-164.55 21.96,-59.39 52.28,-117.85 91.56,-175.39 60.62,-86.91 127.44,-153.11 200.75,-198.89 73.61,-45.47 149.4,-68.36 227.96,-68.36 39.29,0 73,5.88 101.46,17.32 28.46,11.45 55.37,29.7 80.73,55.06l12.68 -40.83c7.74,-25.05 15.78,-40.83 23.51,-47.32 7.74,-6.81 19.18,-10.21 34.34,-10.21 41.75,0 78.25,7.11 109.19,21.34 31.24,14.54 46.7,31.24 46.7,50.73 0,6.19 -12.99,34.34 -38.97,85.06 -25.98,51.04 -48.87,99.29 -68.67,145.07 -39.9,91.25 -69.91,169.51 -90.32,234.47 -20.11,64.95 -30.31,114.75 -30.31,149.71 0,24.43 7.42,41.14 22.58,50.42 15.15,9.28 49.49,16.39 103.31,21.34l-35.26 121.56 -16.4 0c-94.65,0 -161.46,-9.9 -200.13,-30 -38.66,-19.8 -57.84,-53.82 -57.84,-101.46 0,-21.03 3.71,-47.02 10.83,-77.95 7.42,-30.62 19.48,-70.21 36.19,-118.78z"/>
  <path id="3" class="fil2" d="M6623.82 2307.49l34.33 -122.49c31.55,0 64.96,-9.28 100.84,-27.53 35.57,-18.56 75.78,-47.63 120.64,-87.54 19.79,-137.33 47.63,-278.69 82.89,-424.69 35.26,-146 77.02,-290.14 124.66,-432.74 39.9,-117.85 77.33,-199.2 111.97,-244.36 34.95,-44.85 74.86,-67.43 120.33,-67.43 30.31,0 55.05,12.06 74.85,36.19 19.49,24.13 29.39,55.37 29.39,93.42 0,47.01 -17.63,107.02 -53.21,180.02 -35.26,72.69 -83.2,146.62 -143.83,221.47 -46.4,149.4 -83.82,286.43 -111.97,411.39 -28.15,125.28 -42.07,208.18 -42.07,249.32 0,32.78 8.04,56.29 24.44,70.83 16.39,14.54 43.61,21.65 81.66,21.65l-35.27 122.49 -21.03 0c-67.74,0 -120.32,-9.59 -157.75,-29.07 -37.43,-19.18 -61.56,-49.19 -72.38,-89.71 -39.9,36.81 -82.59,65.27 -128.06,85.07 -45.16,20.1 -92.18,31.24 -140.43,33.71z"/>
  <path id="4" class="fil2" d="M8021.32 1635.65c-16.39,-12.68 -32.47,-21.96 -48.56,-28.15 -16.08,-5.87 -32.17,-8.97 -48.56,-8.97 -35.88,0 -76.71,15.47 -123.11,46.4 -46.09,30.62 -90.32,72.69 -132.7,125.89 -38.66,48.88 -69.6,100.84 -92.18,155.59 -22.58,54.75 -34.02,102.69 -34.02,143.83 0,29.39 5.26,51.35 15.47,65.58 10.2,14.23 25.98,21.34 47.01,21.34 59.39,0 124.35,-44.23 195.18,-132.39 70.84,-88.15 144.45,-218.07 221.47,-389.12zm-92.48 343.65c-64.65,115.07 -128.68,198.9 -192.09,252.1 -63.41,53.2 -131.46,79.8 -204.15,79.8 -34.33,0 -64.34,-4.95 -90.01,-14.53 -25.67,-9.59 -45.78,-23.82 -60.32,-42.69 -30.31,16.39 -64.65,28.77 -103.31,37.74 -38.67,8.66 -84.13,13.92 -136.1,15.77l36.5 -122.49c33.1,-1.85 62.79,-5.88 89.08,-12.68 26.29,-6.5 50.11,-15.78 71.15,-27.84 -2.17,-12.68 -4.02,-25.98 -5.26,-39.59 -1.24,-13.3 -1.86,-28.15 -1.86,-43.93 0,-50.1 10.83,-104.85 32.48,-164.55 21.96,-59.39 52.28,-117.85 91.56,-175.39 60.62,-86.91 127.44,-153.11 200.75,-198.89 73.61,-45.47 149.4,-68.36 227.96,-68.36 39.29,0 73,5.88 101.46,17.32 28.46,11.45 55.37,29.7 80.73,55.06l12.68 -40.83c7.74,-25.05 15.78,-40.83 23.51,-47.32 7.74,-6.81 19.18,-10.21 34.34,-10.21 41.75,0 78.25,7.11 109.19,21.34 31.24,14.54 46.7,31.24 46.7,50.73 0,6.19 -12.99,34.34 -38.97,85.06 -25.98,51.04 -48.87,99.29 -68.67,145.07 -39.9,91.25 -69.91,169.51 -90.32,234.47 -20.11,64.95 -30.31,114.75 -30.31,149.71 0,24.43 7.42,41.14 22.58,50.42 15.15,9.28 49.49,16.39 103.31,21.34l-35.26 121.56 -16.4 0c-94.65,0 -161.46,-9.9 -200.13,-30 -38.66,-19.8 -57.84,-53.82 -57.84,-101.46 0,-21.03 3.71,-47.02 10.83,-77.95 7.42,-30.62 19.48,-70.21 36.19,-118.78zm139.5 -918.98l192.09 0 -274.68 317.36 -118.78 0 201.37 -317.36z"/>
  <path id="5" class="fil3 str2" d="M3326.48 2307.49l35.27 -122.49c74.85,-12.68 143.52,-63.72 205.69,-152.8 62.18,-89.09 133.94,-244.36 215.6,-465.53 -13.92,-13.92 -24.13,-29.38 -30.93,-46.39 -6.5,-17.02 -9.9,-36.19 -9.9,-57.85 0,-43.61 12.06,-79.8 35.88,-108.57 23.82,-28.76 53.82,-42.99 90.01,-42.99 33.41,0 59.7,8.97 78.88,27.22 19.48,18.25 29.07,42.37 29.07,72.38 0,14.54 -1.54,28.15 -4.64,40.52 -2.78,12.37 -7.73,25.05 -14.54,37.74 30.94,19.17 70.84,42.37 119.71,69.59 88.77,47.95 133.32,95.27 133.32,142.6 0,39.9 -24.13,110.12 -72.38,211.26 -48.26,100.84 -72.38,169.51 -72.38,205.7 0,21.65 8.35,37.12 24.74,45.78 16.7,8.66 59.7,16.08 128.99,22.27l-35.27 121.56 -27.22 0c-108.88,0 -187.13,-12.68 -234.77,-37.74 -47.94,-25.05 -71.76,-65.57 -71.76,-121.87 0,-50.11 22.89,-124.65 68.67,-223.63 45.47,-98.68 68.36,-162.09 68.36,-189.93 0,-13.3 -7.74,-26.91 -23.51,-41.13 -15.78,-14.23 -42.38,-32.17 -79.8,-54.14 -81.05,234.16 -164.56,402.43 -250.55,504.81 -85.99,102.39 -188.07,156.83 -306.54,163.63z"/>
  <path id="6" class="fil3 str2" d="M4185.15 2307.49l34.64 -122.49c63.41,-2.47 116.93,-32.17 161.16,-88.77 43.92,-56.92 84.13,-149.09 120.32,-276.53 16.09,-58.16 33.41,-128.68 51.35,-211.27 25.36,-116.61 64.03,-175.07 115.99,-175.07 48.88,0 83.52,2.78 103.94,8.66 20.72,5.57 30.93,15.16 30.93,28.46 0,10.2 -19.18,62.17 -57.23,155.58 -38.04,93.42 -71.45,183.74 -100.53,271.58 100.22,-161.77 184.98,-276.84 254.26,-345.19 68.98,-68.36 134.87,-102.39 197.04,-102.39 36.19,0 64.96,10.21 86.61,30.31 21.34,20.42 31.86,47.95 31.86,82.9 0,24.13 -9.28,61.56 -27.84,112.28 -18.87,50.73 -49.49,122.49 -92.49,214.67 117.85,-180.33 207.56,-299.11 269.11,-355.41 61.56,-56.6 124.35,-84.75 187.76,-84.75 43.3,0 77.64,10.83 102.69,32.48 25.06,21.96 37.74,51.04 37.74,88.16 0,42.68 -38.36,158.06 -115.38,346.12l-14.54 36.19c-13.92,33.72 -25.05,66.51 -33.71,98.37 -8.35,31.55 -12.68,54.44 -12.68,68.36 0,21.65 8.97,37.42 26.91,46.7 17.63,9.28 51.34,15.47 100.22,18.56l-34.34 122.49 -11.13 0c-104.24,0 -180.34,-12.99 -227.66,-38.97 -47.33,-25.99 -71.14,-67.43 -71.14,-124.35 0,-38.66 24.43,-117.85 73.61,-237.56 13.92,-34.33 24.75,-60.93 32.48,-79.8 22.27,-57.22 37.12,-96.82 44.54,-118.78 7.12,-21.65 10.83,-37.12 10.83,-46.09 0,-10.82 -1.86,-18.56 -5.57,-23.19 -3.4,-4.64 -9.59,-6.81 -17.94,-6.81 -26.6,0 -76.71,46.71 -150.64,140.12 -73.61,93.42 -141.97,202.6 -204.77,327.57 -17.01,34.64 -34.02,74.55 -51.65,120.01 -21.65,55.99 -57.54,84.14 -107.95,84.14 -45.16,0 -76.71,-2.78 -94.04,-8.04 -17.63,-5.57 -26.29,-15.16 -26.29,-29.08 0,-10.82 13.92,-48.56 42.07,-113.21 28.15,-64.96 51.35,-120.32 69.29,-167.03 47.01,-118.47 77.02,-196.73 89.39,-235.39 12.37,-38.36 18.56,-66.2 18.56,-83.83 0,-11.44 -3.1,-20.1 -9.59,-26.29 -6.19,-5.88 -14.85,-8.97 -25.98,-8.97 -30.01,0 -81.97,45.16 -155.28,135.48 -73.31,90.63 -133.63,189 -180.64,295.4 -20.73,45.78 -40.83,93.72 -60.94,143.52 -19.8,50.11 -30.93,76.41 -33.41,79.5 -7.73,8.97 -19.79,15.47 -35.88,19.49 -15.77,4.02 -41.75,5.87 -77.33,5.87 -23.5,0 -40.21,-2.16 -50.41,-6.8 -9.9,-4.64 -14.85,-12.07 -14.85,-22.27 0,-8.35 5.57,-25.99 16.39,-52.59 1.86,-4.33 2.79,-7.73 3.4,-10.2 -25.67,26.91 -56.29,47.63 -90.94,62.17 -34.95,14.85 -75.16,23.51 -120.32,25.98z"/>
  <path id="7" class="fil3 str2" d="M6488.95 1635.65c-16.39,-12.68 -32.47,-21.96 -48.56,-28.15 -16.08,-5.87 -32.17,-8.97 -48.56,-8.97 -35.88,0 -76.71,15.47 -123.11,46.4 -46.09,30.62 -90.32,72.69 -132.7,125.89 -38.66,48.88 -69.6,100.84 -92.18,155.59 -22.58,54.75 -34.02,102.69 -34.02,143.83 0,29.39 5.26,51.35 15.47,65.58 10.2,14.23 25.98,21.34 47.01,21.34 59.39,0 124.35,-44.23 195.18,-132.39 70.84,-88.15 144.45,-218.07 221.47,-389.12zm-92.48 343.65c-64.65,115.07 -128.68,198.9 -192.09,252.1 -63.41,53.2 -131.46,79.8 -204.15,79.8 -34.33,0 -64.34,-4.95 -90.01,-14.53 -25.67,-9.59 -45.78,-23.82 -60.32,-42.69 -30.31,16.39 -64.65,28.77 -103.31,37.74 -38.67,8.66 -84.13,13.92 -136.1,15.77l36.5 -122.49c33.1,-1.85 62.79,-5.88 89.08,-12.68 26.29,-6.5 50.11,-15.78 71.15,-27.84 -2.17,-12.68 -4.02,-25.98 -5.26,-39.59 -1.24,-13.3 -1.86,-28.15 -1.86,-43.93 0,-50.1 10.83,-104.85 32.48,-164.55 21.96,-59.39 52.28,-117.85 91.56,-175.39 60.62,-86.91 127.44,-153.11 200.75,-198.89 73.61,-45.47 149.4,-68.36 227.96,-68.36 39.29,0 73,5.88 101.46,17.32 28.46,11.45 55.37,29.7 80.73,55.06l12.68 -40.83c7.74,-25.05 15.78,-40.83 23.51,-47.32 7.74,-6.81 19.18,-10.21 34.34,-10.21 41.75,0 78.25,7.11 109.19,21.34 31.24,14.54 46.7,31.24 46.7,50.73 0,6.19 -12.99,34.34 -38.97,85.06 -25.98,51.04 -48.87,99.29 -68.67,145.07 -39.9,91.25 -69.91,169.51 -90.32,234.47 -20.11,64.95 -30.31,114.75 -30.31,149.71 0,24.43 7.42,41.14 22.58,50.42 15.15,9.28 49.49,16.39 103.31,21.34l-35.26 121.56 -16.4 0c-94.65,0 -161.46,-9.9 -200.13,-30 -38.66,-19.8 -57.84,-53.82 -57.84,-101.46 0,-21.03 3.71,-47.02 10.83,-77.95 7.42,-30.62 19.48,-70.21 36.19,-118.78z"/>
  <path id="8" class="fil3 str2" d="M6623.82 2307.49l34.33 -122.49c31.55,0 64.96,-9.28 100.84,-27.53 35.57,-18.56 75.78,-47.63 120.64,-87.54 19.79,-137.33 47.63,-278.69 82.89,-424.69 35.26,-146 77.02,-290.14 124.66,-432.74 39.9,-117.85 77.33,-199.2 111.97,-244.36 34.95,-44.85 74.86,-67.43 120.33,-67.43 30.31,0 55.05,12.06 74.85,36.19 19.49,24.13 29.39,55.37 29.39,93.42 0,47.01 -17.63,107.02 -53.21,180.02 -35.26,72.69 -83.2,146.62 -143.83,221.47 -46.4,149.4 -83.82,286.43 -111.97,411.39 -28.15,125.28 -42.07,208.18 -42.07,249.32 0,32.78 8.04,56.29 24.44,70.83 16.39,14.54 43.61,21.65 81.66,21.65l-35.27 122.49 -21.03 0c-67.74,0 -120.32,-9.59 -157.75,-29.07 -37.43,-19.18 -61.56,-49.19 -72.38,-89.71 -39.9,36.81 -82.59,65.27 -128.06,85.07 -45.16,20.1 -92.18,31.24 -140.43,33.71z"/>
  <path id="9" class="fil3 str2" d="M8021.32 1635.65c-16.39,-12.68 -32.47,-21.96 -48.56,-28.15 -16.08,-5.87 -32.17,-8.97 -48.56,-8.97 -35.88,0 -76.71,15.47 -123.11,46.4 -46.09,30.62 -90.32,72.69 -132.7,125.89 -38.66,48.88 -69.6,100.84 -92.18,155.59 -22.58,54.75 -34.02,102.69 -34.02,143.83 0,29.39 5.26,51.35 15.47,65.58 10.2,14.23 25.98,21.34 47.01,21.34 59.39,0 124.35,-44.23 195.18,-132.39 70.84,-88.15 144.45,-218.07 221.47,-389.12zm-92.48 343.65c-64.65,115.07 -128.68,198.9 -192.09,252.1 -63.41,53.2 -131.46,79.8 -204.15,79.8 -34.33,0 -64.34,-4.95 -90.01,-14.53 -25.67,-9.59 -45.78,-23.82 -60.32,-42.69 -30.31,16.39 -64.65,28.77 -103.31,37.74 -38.67,8.66 -84.13,13.92 -136.1,15.77l36.5 -122.49c33.1,-1.85 62.79,-5.88 89.08,-12.68 26.29,-6.5 50.11,-15.78 71.15,-27.84 -2.17,-12.68 -4.02,-25.98 -5.26,-39.59 -1.24,-13.3 -1.86,-28.15 -1.86,-43.93 0,-50.1 10.83,-104.85 32.48,-164.55 21.96,-59.39 52.28,-117.85 91.56,-175.39 60.62,-86.91 127.44,-153.11 200.75,-198.89 73.61,-45.47 149.4,-68.36 227.96,-68.36 39.29,0 73,5.88 101.46,17.32 28.46,11.45 55.37,29.7 80.73,55.06l12.68 -40.83c7.74,-25.05 15.78,-40.83 23.51,-47.32 7.74,-6.81 19.18,-10.21 34.34,-10.21 41.75,0 78.25,7.11 109.19,21.34 31.24,14.54 46.7,31.24 46.7,50.73 0,6.19 -12.99,34.34 -38.97,85.06 -25.98,51.04 -48.87,99.29 -68.67,145.07 -39.9,91.25 -69.91,169.51 -90.32,234.47 -20.11,64.95 -30.31,114.75 -30.31,149.71 0,24.43 7.42,41.14 22.58,50.42 15.15,9.28 49.49,16.39 103.31,21.34l-35.26 121.56 -16.4 0c-94.65,0 -161.46,-9.9 -200.13,-30 -38.66,-19.8 -57.84,-53.82 -57.84,-101.46 0,-21.03 3.71,-47.02 10.83,-77.95 7.42,-30.62 19.48,-70.21 36.19,-118.78zm139.5 -918.98l192.09 0 -274.68 317.36 -118.78 0 201.37 -317.36z"/>
  <path class="fil2 str2" d="M2467.31 2744.85c-269.05,414.89 -534.73,725.83 -798.73,934.51 -264.01,207.87 -523.83,311.79 -781.13,311.79 -202.83,0 -367.1,-69.57 -491.13,-207.87 -124.88,-138.27 -186.91,-323.5 -186.91,-556.49 0,-366.26 125.71,-761.86 377.99,-1185.95 252.28,-424.92 590.03,-803.75 1014.12,-1138.16 276.59,-221.27 588.36,-405.64 934.51,-554.83 346.14,-149.19 601.77,-223.78 765.19,-223.78 62.03,0 124.04,42.74 185.22,127.4 61.2,84.66 92.2,155.04 92.2,211.2 0,37.73 -43.58,58.66 -129.9,63.7 -51.14,1.67 -93.03,5.02 -125.71,10.06 -160.09,31 -321.86,85.49 -483.61,163.42 -161.75,77.11 -337.77,186.08 -528.01,325.21 -207.85,153.37 -404.8,333.56 -591.72,540.57 -186.06,207.02 -362.89,440.86 -530.51,700.66 -117.34,188.58 -202.83,351.19 -256.47,486.96 -52.8,136.61 -79.61,262.32 -79.61,377.16 0,117.32 27.64,209.51 83.8,274.9 55.33,65.37 133.25,98.05 232.99,98.05 209.54,0 450.07,-146.67 720.78,-439.17 271.55,-293.34 541.43,-699.83 809.63,-1219.47 127.4,-248.9 250.59,-528.85 367.93,-839.78 15.08,-39.4 25.97,-67.89 34.37,-85.49 29.33,-72.08 60.34,-119.86 93.03,-142.49 32.68,-22.62 80.44,-34.37 142.48,-34.37 86.32,0 164.27,19.29 232.99,57.85 68.72,38.54 103.09,82.97 103.09,133.25 0,10.07 -48.62,124.05 -145,341.13 -96.39,217.91 -188.56,438.31 -276.57,660.43 -152.54,378.83 -270.72,698.14 -356.2,960.48 -84.66,261.49 -127.4,437.49 -127.4,528.02 0,77.95 24.3,133.25 73.76,165.1 48.62,31.85 145,51.97 286.63,60.35l-93.03 331.89 -66.2 0c-257.3,0 -442.53,-32.68 -557.35,-98.07 -114.84,-65.37 -171.83,-172.64 -171.83,-319.31 0,-116.51 72.1,-379.66 216.24,-789.5l10.07 -29.36z"/>
 </g>
</svg>
