<?xml version="1.0" encoding="UTF-8"?>
<!DOCTYPE svg PUBLIC "-//W3C//DTD SVG 1.1//EN" "http://www.w3.org/Graphics/SVG/1.1/DTD/svg11.dtd">
<!-- Creator: CorelDRAW 2020 (64-Bit) -->
<svg xmlns="http://www.w3.org/2000/svg" xml:space="preserve" width="251.277mm" height="144.436mm" version="1.1" style="shape-rendering:geometricPrecision; text-rendering:geometricPrecision; image-rendering:optimizeQuality; fill-rule:evenodd; clip-rule:evenodd"
viewBox="0 0 25127.74 14443.6"
 xmlns:xlink="http://www.w3.org/1999/xlink"
 xmlns:xodm="http://www.corel.com/coreldraw/odm/2003">
 <defs>
  <style type="text/css">
   <![CDATA[
    .fil1 {fill:#EC3237}
    .fil0 {fill:#FDFDFD}
   ]]>
  </style>
 </defs>
 <g id="Capa_x0020_1">
  <metadata id="CorelCorpID_0Corel-Layer"/>
  <g id="_2125738469360">
   <path class="fil0" d="M18366.15 5198.63c-217.96,-1280.35 734.27,-2599.79 2147.38,-2792.98 1469.11,-200.83 2612.54,891.17 2780.27,2112.25 206.28,1501.71 -869.76,2629.6 -2137.63,2798.83 -792.51,105.78 -1474.8,-190.17 -1908.8,-540.83 -449.88,-363.48 -756.84,-846.64 -881.22,-1577.27zm2073.55 -4316.91c-1259.28,176.36 -2001.4,642.9 -2634.76,1366.12 -600.99,686.29 -1098.39,1750.59 -962.67,3047.15 210.48,2010.6 2091.35,3839.17 4401.16,3561.43 2090.52,-251.38 3774.28,-2012.44 3576.69,-4380.7 -179.98,-2157.09 -2272.84,-3889.13 -4380.42,-3594z"/>
   <path class="fil0" d="M10744.18 6127.77c-248.39,-280.8 -372.83,-940.38 -292.12,-1429.41 145.16,-879.55 813.27,-1573.85 1653.04,-1820.27 358.49,-105.2 1184.93,-162.79 1480.48,50.63 -149.72,231.61 -491.69,569.33 -694.9,805.88 -242.84,282.68 -472.12,515.29 -711.6,798.71l-1065.93 1204.7c-68.79,81.13 -94.97,114.55 -176.56,202.25l-192.41 187.51zm5328.84 -2644.84c-142.04,139.25 -318.71,355.82 -465.39,525.38 -283.31,327.43 -619.6,590.31 -629.03,843.77 -7.23,194.68 -6.72,285.96 -47.01,473.4 -387.23,1801.37 -2542.51,2069.08 -3111.3,1661.56 137.23,-229.08 3583.36,-3999.38 3775.41,-4299.07 -998.28,-1304.51 -3256.63,-1741.76 -4937.35,-601.82 -1608.31,1090.82 -2149.12,3161.97 -1127.45,4773.76 1900.84,2998.81 6763.96,1529.2 6855.39,-1935.19 10.89,-412.65 -75.76,-1230.98 -313.27,-1441.79z"/>
   <path class="fil0" d="M256.13 8184.95l1516.89 1.51c23.48,-925.6 -57.36,-3807.69 38.16,-4419.92 173.04,-1109.29 1159.2,-2067.95 2429.99,-2077.49 1301.56,-9.77 2267.46,930.19 2468.93,2038.7 104.66,575.91 26.26,3581.13 44.97,4457.71l1515.01 0.91c3.77,-995.94 0.06,-1992.2 0.06,-2987.74 0,-995.59 45.48,-1863.83 -342.35,-2653.91 -706.22,-1438.74 -1953.68,-2370.39 -3651.96,-2373.4 -1862.38,-3.31 -3092.83,1137.63 -3666.57,2359.52 -400.39,852.76 -357.42,1585.69 -357.42,2633.39 0,978.71 -42.17,2053.95 4.29,3020.72z"/>
   <path class="fil1" d="M6047.75 12403.49c-230.46,-1024.93 497.79,-2228.15 1737.67,-2217.99 1209.94,9.92 1936.66,1184.19 1710.12,2222.65l-3447.79 -4.66zm-624.23 1892.9l590.56 0.22 17.4 -1263.48 3482.02 -2.71 1.51 1263.92 598.51 2.61c63.72,-366.78 13.24,-1310.99 13.24,-1738.31 0,-642.34 37.19,-1066.02 -202.9,-1588.5 -881.08,-1917.52 -3505.94,-1790.29 -4299.99,-22.26 -237.41,528.62 -213.59,928.4 -213.59,1576.36 0,434.85 -51.52,1399.93 13.24,1772.15z"/>
   <path class="fil1" d="M15122.75 13673.92l-9.95 622.69c506.56,2.21 2264.25,67.18 2587,-81.54 733.87,-338.16 733.15,-1286.38 91.81,-1683.56 -429.08,-265.72 -1524.95,-43.31 -1852.18,-144.7 -160.76,-49.81 -282.3,-243.51 -184.05,-458.21 130.79,-285.87 840.96,-174.38 1181.91,-174.38 421.17,0 910.52,22.75 1323.29,-5.16l8.62 -597.84c-424.1,-49.28 -2313.93,-56.42 -2601.03,69.82 -663.05,291.54 -786.02,1247.41 -92.72,1666.23 450.46,272.13 1514.02,54.86 1845.95,150.33 147.38,42.41 283.67,217.4 213.12,421.13 -111.89,323.07 -768.09,214.62 -1144.51,214.62 -455.56,0 -911.79,-2.45 -1367.26,0.57z"/>
   <path class="fil1" d="M13082.33 11142.12l-583.64 -1.83 3.21 615.84 581.71 -2.4 1.04 2545.7 601.82 -3.17c115.43,-537.99 -96.27,-2138.23 40.85,-2538.85l951.84 -3.71 -0.44 -612.54 -962.94 0.26 -13.93 -1569.09 -613.51 -1.63 -6.01 1571.42z"/>
   <path class="fil1" d="M10561.57 14288.83l610.4 7.86c106.46,-870.94 -405.52,-2489.42 970.76,-2541.18l12.96 -618.12c-764.45,55.84 -1219.28,403.93 -1456.53,928.15 -206.66,456.64 -165.86,1636.86 -137.59,2223.29z"/>
  </g>
 </g>
</svg>
