<svg id="Capa_1" data-name="Capa 1" xmlns="http://www.w3.org/2000/svg" viewBox="0 0 501 168.92"><defs><style>.cls-1{fill:red;}.cls-2{fill:#fff;}</style></defs><path class="cls-1" d="M135,93.07A51.66,51.66,0,0,1,33.56,96.61c-.32-1.44-.58-2.9-.79-4.38A7.89,7.89,0,0,1,48,90.71c.11.71.24,1.42.39,2.12h0a36.33,36.33,0,0,0,71.22-1,4.88,4.88,0,0,1,.13-.73,7.42,7.42,0,0,1,.61-1.71,7.65,7.65,0,0,1,14.51,3.31A1.65,1.65,0,0,1,135,93.07Z" transform="translate(0 -0.65)"/><path class="cls-2" d="M168.23,85.19A84.33,84.33,0,0,1,0,93.66v-.81a7.65,7.65,0,0,1,6.31-7.51,7.9,7.9,0,0,1,1.36-.12,7.67,7.67,0,0,1,7.53,6.31c0,.37.11.74.11,1.12a69.06,69.06,0,1,0,137-17.4c-.07-.47-.15-1-.23-1.47v-.46a7.7,7.7,0,0,1,7.7-7.7l-.1,0A7.7,7.7,0,0,1,167,71c.12.72.23,1.45.34,2.18A84.43,84.43,0,0,1,168.23,85.19Z" transform="translate(0 -0.65)"/><path class="cls-1" d="M89.46,8.52a7.76,7.76,0,0,1-6.55,7.66c-.65,0-1.3,0-2,.05a69.07,69.07,0,0,0-60.6,42.05h0l-.25.58h0A7.66,7.66,0,0,1,5.93,53.14h0l.39-.94h0A84.36,84.36,0,0,1,80,1h.41L82,.9h1A7.76,7.76,0,0,1,89.46,8.52Z" transform="translate(0 -0.65)"/><path class="cls-1" d="M130.6,77.29A7.3,7.3,0,0,1,123.31,71c.2-1.42.46-2.86.77-4.26A51.11,51.11,0,0,1,149.81,33a83.76,83.76,0,0,1,8,12,36.35,36.35,0,0,0-7.11,4.57A36.89,36.89,0,0,0,138,70.26c-.16.72-.29,1.45-.4,2.16A7.3,7.3,0,0,1,130.6,77.29Z" transform="translate(0 -0.65)"/><path class="cls-1" d="M149.67,33.57a84.4,84.4,0,0,1,7.41,11.13,37.36,37.36,0,0,0-19.62,25.46c-.15.7-.28,1.4-.38,2.09A6.87,6.87,0,0,1,123.83,71c.19-1.39.44-2.78.75-4.15A50.6,50.6,0,0,1,149.67,33.6Zm.27-1.27a51.72,51.72,0,0,0-26.35,34.32c-.33,1.44-.59,2.9-.79,4.38a7.89,7.89,0,0,0,15.27,1.52c.11-.71.24-1.42.39-2.12a36.45,36.45,0,0,1,20-25.23,85,85,0,0,0-8.54-12.87Z" transform="translate(0 -0.65)"/><path class="cls-2" d="M314.87,114.85v.07H293.56l-.05-20.12a.06.06,0,1,1,.1-.08A66.5,66.5,0,0,0,314.87,114.85Z" transform="translate(0 -0.65)"/><path class="cls-2" d="M391.17,98.3a66,66,0,0,1-8.64-14.87.58.58,0,0,0-.53-.35h-5.33a.57.57,0,0,0-.39.16,36.79,36.79,0,0,1-25.36,10.39h-.12A35.64,35.64,0,0,1,317,69.41a.57.57,0,0,1,0-.18.58.58,0,0,1,.57-.57h60.14a.58.58,0,0,0,.49-.65,65.54,65.54,0,0,1-.84-10.18,66.77,66.77,0,0,1,.73-9.89.31.31,0,0,0,0-.1.57.57,0,0,0-.57-.55h-60a.57.57,0,0,1-.54-.75A35.73,35.73,0,0,1,380.4,38l.06-.21a66.13,66.13,0,0,1,10.39-20,.59.59,0,0,0,0-.75,57.22,57.22,0,1,0,.41,81.4ZM316.8,69.39c-.09-.25-.17-.5-.25-.75h.25Z" transform="translate(0 -0.65)"/><path class="cls-2" d="M298.9,16.23a0,0,0,0,1,0,.07A66.26,66.26,0,0,0,288,35.92,36,36,0,0,0,260.55,22c-20.19-.51-36.69,16.07-36.69,36.26v56.62a.06.06,0,0,1-.06,0H202.55a.06.06,0,0,1-.06,0V58.36C202.49,26,229-.25,261.34.69a56.92,56.92,0,0,1,37.55,15.53Z" transform="translate(0 -0.65)"/><path class="cls-2" d="M500.26,48.62a57.2,57.2,0,0,0-96.77-31.33,58.24,58.24,0,0,0-6.15,7.24,57.16,57.16,0,1,0,100.82,51c.08-.23.15-.46.22-.69.12-.38.23-.75.34-1.13s.23-.78.33-1.17A56.73,56.73,0,0,0,501,57.82,57.85,57.85,0,0,0,500.26,48.62ZM443.84,93.4v-.07a35.83,35.83,0,0,1-29.6-15.54,35.1,35.1,0,0,1-6.18-19V56.87a35.78,35.78,0,0,1,35.76-35h.76a35.79,35.79,0,0,1-.74,71.57Z" transform="translate(0 -0.65)"/><polygon class="cls-1" points="251.36 168.87 240.69 168.87 236.8 159.5 233.6 151.82 226.99 135.91 212.52 168.87 202.11 168.87 221.68 125.14 231.72 125.14 251.36 168.87"/><path class="cls-1" d="M280.85,135.31v8.89c-1.09-.08-1.82-.12-2.2-.12a9.06,9.06,0,0,0-6.59,2.31c-1.59,1.55-2.38,3.86-2.38,7v16.18h-9.79V135.8h9.35v2.4a21.49,21.49,0,0,0-3.57,2.45,22.06,22.06,0,0,1,3.57-2.44h0A23.78,23.78,0,0,1,280.85,135.31Z" transform="translate(0 -0.65)"/><path class="cls-1" d="M269.24,138.2h0a22.06,22.06,0,0,0-3.57,2.44A21.49,21.49,0,0,1,269.24,138.2Z" transform="translate(0 -0.65)"/><path class="cls-1" d="M269.24,138.2h0a22.06,22.06,0,0,0-3.57,2.44A21.49,21.49,0,0,1,269.24,138.2Z" transform="translate(0 -0.65)"/><path class="cls-1" d="M346.71,164.77a1.93,1.93,0,0,1,0,.24,6.51,6.51,0,0,1-.64,2.45,14.91,14.91,0,0,1-1.69.74,20.45,20.45,0,0,1-3.18.86,29.47,29.47,0,0,1-5.38.46H305.48c-3.61-.13-6.44-1.14-8.48-3q-3.3-3-3.29-8.9V144H288.5v-7.41h5.21v-10.8h9.79v10.75h8.4V144h-8.41v13.53a4.47,4.47,0,0,0,1.1,3.24,4,4,0,0,0,2.86,1.13h32.36q2.58-.69,2.58-2.64s4.05,1.72,4.31,5.25C346.7,164.6,346.71,164.68,346.71,164.77Z" transform="translate(0 -0.65)"/><path class="cls-1" d="M346.7,164.51c-.26-3.53-4.31-5.25-4.31-5.25h0C342.41,157.68,346.59,160.44,346.7,164.51Z" transform="translate(0 -0.65)"/><path class="cls-1" d="M351.74,159a8.71,8.71,0,0,1-1.88,5.5,10.9,10.9,0,0,1-3.8,3,6,6,0,0,0,.64-2.49,1.93,1.93,0,0,0,0-.24,2.26,2.26,0,0,0,0-.26c-.26-3.53-4.31-5.25-4.31-5.25h0a2.14,2.14,0,0,0-1.69-2,25.65,25.65,0,0,0-5.21-1,49.73,49.73,0,0,1-6.84-1.42A10.79,10.79,0,0,1,324,152a8,8,0,0,1-2-5.81,9,9,0,0,1,1.85-5.59,12.08,12.08,0,0,1,5.4-3.8,23.37,23.37,0,0,1,8.37-1.36,32.84,32.84,0,0,1,7.12.78,19.78,19.78,0,0,1,5.87,2.13l-3.26,6.85a19.72,19.72,0,0,0-9.73-2.47,10,10,0,0,0-4.7.87,2.54,2.54,0,0,0-1.57,2.22A2.2,2.2,0,0,0,333,148a30.25,30.25,0,0,0,5.4,1.18,58,58,0,0,1,6.78,1.45,10.2,10.2,0,0,1,4.58,2.81A7.94,7.94,0,0,1,351.74,159Z" transform="translate(0 -0.65)"/></svg>