<?xml version="1.0" encoding="UTF-8"?>
<!DOCTYPE svg PUBLIC "-//W3C//DTD SVG 1.1//EN" "http://www.w3.org/Graphics/SVG/1.1/DTD/svg11.dtd">
<!-- Creator: CorelDRAW 2020 (64-Bit) -->
<svg xmlns="http://www.w3.org/2000/svg" xml:space="preserve" width="508mm" height="285.75mm" version="1.1" style="shape-rendering:geometricPrecision; text-rendering:geometricPrecision; image-rendering:optimizeQuality; fill-rule:evenodd; clip-rule:evenodd"
viewBox="0 0 50799.98 28575"
 xmlns:xlink="http://www.w3.org/1999/xlink"
 xmlns:xodm="http://www.corel.com/coreldraw/odm/2003">
 <defs>
  <style type="text/css">
   <![CDATA[
    .fil2 {fill:#000102}
    .fil6 {fill:#000104}
    .fil5 {fill:#000205}
    .fil4 {fill:#00040B}
    .fil0 {fill:#003398}
    .fil3 {fill:#02359A}
    .fil1 {fill:#61A927}
   ]]>
  </style>
 </defs>
 <g id="Capa_x0020_1">
  <metadata id="CorelCorpID_0Corel-Layer"/>
  <g id="_1652010126720">
   <path class="fil0" d="M6452.96 6929.53l642.87 -641.94c179.64,185.94 280.88,583.81 431.49,823.18 73.63,117.09 229.89,284.91 279.4,387.43 80.88,167.5 37.71,315.05 137.41,533.1l413.68 1535.5c44.33,328.96 -164.47,139.52 95.99,459.97 382.33,470.35 19.89,609.47 228.21,1057.7 166.07,357.36 271.96,573.98 347.62,983.4 96.46,522.02 676.56,828.91 169.27,1313.01 -582.15,555.53 -1516.07,-297.23 -2330.17,-594.23 -180.13,-65.71 -771.82,-295.26 -887.91,-394.14 -79.33,-67.55 -241.44,-280.42 -248.5,-390.4 -12.13,-189.52 109.55,-203.44 74.21,-547.09 -37.71,-366.69 61.52,-244.42 111.9,-1070.52 49.47,-811.32 -17.42,-534.3 160.85,-1185.49l289.91 -1716.97c139.27,-317.31 131.01,-101.7 83.77,-552.51zm-2828.84 9867.08l-73.68 578.11c-74.89,492.29 122.24,238.59 -96.9,685.09 -212.11,432.14 8.72,671 -502.51,1113.5 -151.11,130.78 -143.25,190.26 -231.83,383.72 -144.49,315.6 -159.72,156.67 -275.8,341.49 -88.02,140.2 -5.05,82.09 -100.79,231.64 -61.38,95.87 -64.64,36.01 -165.69,178.48 -18.29,202.98 14.3,249.95 -40.37,451.29 -134.47,495.19 -106.8,738.08 74.86,1196.28 174.22,439.4 894.9,401.01 1313.3,299.12 245.37,-59.75 183.89,-69.8 525.05,-365.89 810.12,-703.11 836.67,-1675.32 777.15,-2605.85 -17.34,-270.93 56.13,-452.26 65.23,-714.13 21.51,-618.43 133.35,-377.06 189.31,-718.7 114.09,-696.66 -60.16,-894.69 511.35,-1219.52 684.51,-389.05 549.37,-256.14 986.1,-741.79 137.5,-152.9 348.25,-203.95 511.69,-325.48 611.22,-454.45 322.17,-553.67 1859.13,-765.69 1370.73,-189.1 1563.9,771.78 1653.04,887 143.63,185.61 239.56,290.62 424.45,469.18 560.89,541.7 512.99,732.25 1033.28,1532.55 214.64,330.14 172.35,625.15 522.19,1205.4 127.66,211.73 204.67,915.72 798.28,1821.21 140.89,214.9 229.49,272.49 358.47,534.68 56.62,115.06 92.42,198.05 155.73,289.13 167.31,240.7 36.74,174.96 281.07,158.87 102.29,-271.38 -22.53,-125.2 -208.44,-795.48 -199.49,-719.25 -411.6,-416.71 -518.95,-1204.84 -68.66,-504.08 -253.52,-869.16 -469.55,-1314.08 -234.75,-483.46 -461.23,-1178.46 -641.8,-1698.53 -251.63,-724.86 -554.14,-790.97 -546.92,-1777.47 760.53,-532.36 511.25,-232.69 1190.34,-582.31 0.36,-0.19 665.69,-255.01 577.22,-458.45 -226.05,-519.91 -1188.04,-93.91 -1851.94,-340.19 -832.41,-308.79 -582.44,-770.32 -1027.35,-2151.36 -210,-651.83 -578.25,-2589.5 -581.53,-2597.99 -49.33,-126.76 -125.96,-215.18 -186.98,-369.1 -116.15,-292.97 -232.18,-809.11 -428.36,-1190 -212.91,-413.36 14.75,-380.58 -262.65,-792.78 -95.19,-141.42 -379.76,-576.9 -409.27,-647.19 -91.76,-218.53 -22.53,-155.39 -157.16,-348.32 -274.47,-393.28 -375.23,-604.04 -501.79,-1115.04 -158.95,-641.69 -577.03,-1031.2 -773.19,-1345.68 -206.31,-330.77 -335.51,-357.28 -788.5,-312.55 -161.69,205.7 4.85,121.64 -271.63,258.78 -436.37,216.44 -496.14,204.65 -505.45,389.97 -14.92,297.04 111.71,35 107.26,445.71 -5.96,554.67 241.65,793.81 151.09,1322.06l-360.04 807.85c-95.65,118.32 -146.53,103.51 -259.11,299.6 -67.21,117.05 -147.04,281.89 -203.8,406.46 -353.32,775.1 -48.19,1421.3 -104.63,2127.34 -8.73,109.16 -175.79,839.11 -220.28,1008.36 -126.72,481.82 -365.98,1453.41 -383.38,1945.97 -43.28,1224.29 -677.83,1616.92 -921.1,2043.99 -94.66,166.2 -65.38,239.48 -203.19,409.55 -262.97,324.51 -221.97,78.23 -262.61,785.72 -51.58,897.71 471.58,1428.18 471.58,1890.31z"/>
   <path class="fil0" d="M24852.56 21842.92c-624.9,-87.27 -1542.6,218.49 -1601,-1644.35 -17.28,-551.05 175.19,-976.78 169.06,-1505.07 -6.47,-555.81 -32.36,-1116.64 -17.85,-1674.39 12.77,-490.14 166.11,-956.68 238.68,-1447.75 89.56,-606.29 58.7,-996.71 477.79,-1208.08 324.89,-163.83 349.9,-82.09 648.14,-77.79 87.56,1.27 1879.37,-199.59 2016.05,-273.1 169.61,-91.21 48.8,0.09 125.7,-114.57 -666.36,-384.06 -2325.2,-152.25 -2670.32,-253.07 -931.76,-272.18 537.5,-1463.23 -735.09,-2496.67 -114.85,-93.25 -345.25,-205.26 -519.53,-208.86 -245.04,-5.03 -382.94,95.91 -515.91,213.54 -128.02,113.27 -400.76,241.62 -461.15,318.17 -204.27,258.84 51.71,848.42 63.88,1255.74 5.59,186.02 -36.66,1340.84 -64.03,1449.87 -14.07,10.03 -36.78,4.01 -45.53,24.76 -8.57,20.39 -33.6,18.41 -45.55,22.67 -11.59,4.15 -31.29,14.26 -45.64,18.69l-286.71 39.5c-600.67,59.76 -1003.62,68.02 -1165.14,340.36l122.1 273.92c394,-53.7 460.85,-344.76 1466.81,-453.18 0,445.73 12.07,907.53 1.48,1351.06 -11.4,477.48 -138.81,729.68 -102.65,1281.3 20.37,310.81 162.53,960.78 147.48,1141.73 -117,1406.68 25.73,1398.88 153.41,2478.86 93.21,788.53 717.69,873.86 978.08,1027.41 535.06,315.52 1106.93,348.18 1667.44,119.3z"/>
   <path class="fil1" d="M44055.37 18301.77c0,-1937.92 1797.43,-2804.89 3025.81,-1520.28 673.23,704.03 647.59,2535.94 47.51,3310.16 -669.89,864.29 -2087.38,807.33 -2675.91,-69.47 -348.38,-519.03 -397.41,-1089.29 -397.41,-1720.41zm1951.31 -2786.83c-602.02,0 -878.45,10.2 -1443.6,285.11 -1028.74,500.42 -1357.21,1477.77 -1350.68,2724.81 17.76,3385.82 3370.38,3304.07 4509.86,2104.86 914.37,-962.31 960.66,-3214.53 110.23,-4209.83 -350.66,-410.39 -1066.68,-904.95 -1825.81,-904.95z"/>
   <path class="fil0" d="M16441.61 21207.76c1056.66,113.73 905.13,-680.36 1026.28,-1506.53 148.11,-1010.03 42.26,-1516.43 286.33,-2224.37 151.17,-438.52 101.13,-1035.41 491.15,-1404.07 703.72,-665.18 480.51,-323.71 736.42,-547.04 131.01,-114.33 108.74,-176.69 310.65,-302.39 370.61,-230.73 456.59,-156.4 737.37,-191.12l196.22 -52.93c8.59,-19.11 30.71,-12.22 43.5,-22.31 -101.53,-189.4 -37.5,-208.46 -347.43,-191.71 -517.38,27.96 -1339.6,383.52 -1730.63,696.34 -243.07,194.45 -402.99,233.09 -687.64,69.32 -113.33,-126.96 45.51,-291.43 -193.38,-865.32 -318.88,-766.07 -1398.63,-115.67 -1509.58,76.38 -346.36,599.61 284.67,1219.22 357,1517.08 195.67,805.57 -30.89,2647.12 11.95,3882.45 22.29,642.6 -4.76,624.45 271.79,1066.22z"/>
   <polygon class="fil0" points="27331.68,22817.21 48793.97,22817.21 48793.97,22315.51 27331.68,22315.51 "/>
   <path class="fil2" d="M3524.71 22255.33c-418.4,101.89 -1139.08,140.28 -1313.3,-299.12 -181.66,-458.2 -209.33,-701.09 -74.86,-1196.28 54.67,-201.34 22.08,-248.31 40.37,-451.29 101.05,-142.47 104.31,-82.61 165.69,-178.48 95.74,-149.55 12.77,-91.44 100.79,-231.64 116.08,-184.82 131.31,-25.89 275.8,-341.49 88.58,-193.46 80.72,-252.94 231.83,-383.72 511.23,-442.5 290.4,-681.36 502.51,-1113.5 219.14,-446.5 22.01,-192.8 96.9,-685.09l73.68 -578.11c0,-462.13 -523.16,-992.6 -471.58,-1890.31 40.64,-707.49 -0.36,-461.21 262.61,-785.72 137.81,-170.07 108.53,-243.35 203.19,-409.55 243.27,-427.07 877.82,-819.7 921.1,-2043.99 17.4,-492.56 256.66,-1464.15 383.38,-1945.97 44.49,-169.25 211.55,-899.2 220.28,-1008.36 56.44,-706.04 -248.69,-1352.24 104.63,-2127.34 56.76,-124.57 136.59,-289.41 203.8,-406.46 112.58,-196.09 163.46,-181.28 259.11,-299.6l360.04 -807.85c90.56,-528.25 -157.05,-767.39 -151.09,-1322.06 4.45,-410.71 -122.18,-148.67 -107.26,-445.71 9.31,-185.32 69.08,-173.53 505.45,-389.97 276.48,-137.14 109.94,-53.08 271.63,-258.78 452.99,-44.73 582.19,-18.22 788.5,312.55 196.16,314.48 614.24,703.99 773.19,1345.68 126.56,511 227.32,721.76 501.79,1115.04 134.63,192.93 65.4,129.79 157.16,348.32 29.51,70.29 314.08,505.77 409.27,647.19 277.4,412.2 49.74,379.42 262.65,792.78 196.18,380.89 312.21,897.03 428.36,1190 61.02,153.92 137.65,242.34 186.98,369.1 3.28,8.49 371.53,1946.16 581.53,2597.99 444.91,1381.04 194.94,1842.57 1027.35,2151.36 663.9,246.28 1625.89,-179.72 1851.94,340.19 88.47,203.44 -576.86,458.26 -577.22,458.45 -679.09,349.62 -429.81,49.95 -1190.34,582.31 -7.22,986.5 295.29,1052.61 546.92,1777.47 180.57,520.07 407.05,1215.07 641.8,1698.53 216.03,444.92 400.89,810 469.55,1314.08 107.35,788.13 319.46,485.59 518.95,1204.84 185.91,670.28 310.73,524.1 208.44,795.48 -244.33,16.09 -113.76,81.83 -281.07,-158.87 -63.31,-91.08 -99.11,-174.07 -155.73,-289.13 -128.98,-262.19 -217.58,-319.78 -358.47,-534.68 -593.61,-905.49 -670.62,-1609.48 -798.28,-1821.21 -349.84,-580.25 -307.55,-875.26 -522.19,-1205.4 -520.29,-800.3 -472.39,-990.85 -1033.28,-1532.55 -184.89,-178.56 -280.82,-283.57 -424.45,-469.18 -89.14,-115.22 -282.31,-1076.1 -1653.04,-887 -1536.96,212.02 -1247.91,311.24 -1859.13,765.69 -163.44,121.53 -374.19,172.58 -511.69,325.48 -436.73,485.65 -301.59,352.74 -986.1,741.79 -571.51,324.83 -397.26,522.86 -511.35,1219.52 -55.96,341.64 -167.8,100.27 -189.31,718.7 -9.1,261.87 -82.57,443.2 -65.23,714.13 59.52,930.53 32.97,1902.74 -777.15,2605.85 -341.16,296.09 -279.68,306.14 -525.05,365.89zm2344.67 -19283.78l-167.25 0c-104.78,713.31 -9.54,309.93 49.73,674.98 16.51,101.71 -0.15,221.28 8.07,326.41 19.17,245.63 165.18,387.51 165.18,559.5 0,158.42 -96.9,134.83 -46.23,344 81.02,334.35 -80,290.93 -169.27,555.41 -281.93,835.3 -98.31,172.14 -380.36,623.07 -33.97,54.32 -84.14,164.41 -110.89,223.59 -431.53,954.61 -240.93,1470.69 -240.93,2434.91 0,260.55 -599.07,2439.87 -612.15,3290.08 -6.41,415.51 -186.55,641.78 -391.18,946.74l-525.87 756.29c-378.09,740.08 -369.92,342.9 -435.32,905.18 -145.97,1254.65 459.38,1659.05 459.38,2184.9 0,352.03 -78.95,615.23 -114.47,944.72l-218.15 896.78c-97.41,270.82 -120.14,255.78 -309.66,415.02 -186.66,156.84 -242.09,489.7 -422.15,637.04 -176.01,144.01 -360.39,507.14 -383.06,731.87 -54.51,540.05 -113.4,425.91 -113.4,1113.01 0,158.27 62.43,142.83 109.08,336.88 54.31,225.99 -22.99,112.26 150.26,295.71l258.55 187.43c54.93,20.76 110.02,29.14 173.13,49.85 185.09,60.77 37.46,77.81 256.66,77.81 782.12,0 1109.2,-232.29 1553.96,-787.38 629.03,-785.05 629.05,-1488.05 565.1,-2395.31l53.67 -943.91c28.5,-264.23 -23.18,-72.2 99.36,-235.11 364.95,-485.25 -164.91,-987.63 607.03,-1399.83 155.24,-82.89 274.33,-149.58 428.32,-240.64 237.18,-140.28 155.6,-218.76 427.55,-241.39 30.55,-367.14 204.96,-335.41 465.27,-482.43 731.45,-413.11 504.85,-799.73 2322.05,-799.73 351.88,0 776.91,155.85 914.16,479.5 200.26,472.31 315.62,447.91 614.51,834.87 261.03,337.96 421.64,370.95 627.7,821.71 398.8,872.38 319.52,358.35 691.73,1482.37 63.32,191.2 187.75,287.17 260.99,463.71 137.33,331.07 174.41,631.29 383.7,1065.72 47.3,98.18 64.11,124.69 110.86,223.61l417.85 697.08c44.88,67.36 28.89,39.82 67.57,99.66 26.3,40.7 35.46,55.12 63.99,103.24l418.12 696.81c78.44,-18.29 249.4,-77.07 291.82,-101.16 188.88,-107.22 141.39,-306.62 56.19,-523.91l-348.15 -824.17c-118.69,-241.06 -75.01,-376.89 -334.33,-446.15 0,-634.44 -119.68,-849.35 -310.53,-1306.12l-699.99 -1752.83c-65.37,-180.92 -130.04,-448.92 -218.38,-617.82 -194.77,-372.34 -443.49,-712.59 -443.49,-1284.64 0,-188.41 244.3,-267.73 387.68,-337.01 253.25,-122.39 552.77,-162.04 779.88,-279.3 11.23,-5.79 25.28,-13.44 36.89,-18.87 260.09,-121.93 427.12,-191.91 579.44,-479.74 235.97,56.49 374.78,99.39 445.97,-167.24 -134.91,-184.13 -60.68,-62.6 -278.73,-167.23 -52.63,225.88 -14.93,167.84 -167.24,222.98 -103.37,-195.36 -39.78,-216.75 -254.36,-303.11 -618.13,-248.79 -1905.2,202.08 -2236.24,-551.07l-901.46 -3669.73c-26.38,-214.05 -21.3,-315.43 -65.38,-492.08 -64.16,-257 -100.86,-190.26 -199.34,-413.87 -65.9,-149.67 -84.61,-268.55 -141.46,-415.99 -64.09,-166.18 -103.64,-203.64 -154.69,-402.79 -66.28,-258.39 -58.83,-190.09 -156.21,-401.26 -161.54,-350.33 18.58,-379 -271.79,-843.12l-310.74 -525.47c-122.58,-149.17 -31.35,3.18 -102.54,-176.18 -109.37,-275.53 -66.08,-174.57 -223.09,-390.13 -132.73,-182.25 -287.45,-488.09 -363.32,-751.61 -55.98,-194.49 -43.34,-255.86 -120.24,-437.21l-885 -1400.59c-198.9,-183.52 -544.5,-235.31 -766.38,-159.01 -203.79,70.07 -229.45,178.08 -422.49,302.22 -123.44,79.39 -156.46,160.48 -285.49,160.48z"/>
   <path class="fil1" d="M36139.41 17967.3c0,-2056.64 2769.98,-2438.92 3066.4,-613.4 253.51,-58.32 457.29,-111.2 783.13,-111.48 -12.47,-502.31 -359.38,-966.07 -627.68,-1214.5 -163.22,-151.14 -347.73,-266.41 -554.63,-337.85 -796.91,-275.19 -1530.7,-253.26 -2289.87,148.31 -1964.47,1039.08 -1703.72,5487.41 1069.89,5532.94 1278.81,21.01 2005.6,-458.79 2399.45,-1507.14 151.64,-403.63 281.51,-558.8 -724.56,-558.8 -15.91,692.59 -586.11,1393.66 -1282.33,1393.66l-390.23 0c-844.35,0 -1449.57,-969.64 -1449.57,-1784.06l0 -947.68z"/>
   <path class="fil2" d="M16441.61 21207.76c-276.55,-441.77 -249.5,-423.62 -271.79,-1066.22 -42.84,-1235.33 183.72,-3076.88 -11.95,-3882.45 -72.33,-297.86 -703.36,-917.47 -357,-1517.08 110.95,-192.05 1190.7,-842.45 1509.58,-76.38 238.89,573.89 80.05,738.36 193.38,865.32 284.65,163.77 444.57,125.13 687.64,-69.32 391.03,-312.82 1213.25,-668.38 1730.63,-696.34 309.93,-16.75 245.9,2.31 347.43,191.71 -12.79,10.09 -34.91,3.2 -43.5,22.31l-196.22 52.93c-280.78,34.72 -366.76,-39.61 -737.37,191.12 -201.91,125.7 -179.64,188.06 -310.65,302.39 -255.91,223.33 -32.7,-118.14 -736.42,547.04 -390.02,368.66 -339.98,965.55 -491.15,1404.07 -244.07,707.94 -138.22,1214.34 -286.33,2224.37 -121.15,826.17 30.38,1620.26 -1026.28,1506.53zm8410.95 635.16c-560.51,228.88 -1132.38,196.22 -1667.44,-119.3 -260.39,-153.55 -884.87,-238.88 -978.08,-1027.41 -127.68,-1079.98 -270.41,-1072.18 -153.41,-2478.86 15.05,-180.95 -127.11,-830.92 -147.48,-1141.73 -36.16,-551.62 91.25,-803.82 102.65,-1281.3 10.59,-443.53 -1.48,-905.33 -1.48,-1351.06 -1005.96,108.42 -1072.81,399.48 -1466.81,453.18l-122.1 -273.92c161.52,-272.34 564.47,-280.6 1165.14,-340.36l286.71 -39.5c14.35,-4.43 34.05,-14.54 45.64,-18.69 11.95,-4.26 36.98,-2.28 45.55,-22.67 8.75,-20.75 31.46,-14.73 45.53,-24.76 27.37,-109.03 69.62,-1263.85 64.03,-1449.87 -12.17,-407.32 -268.15,-996.9 -63.88,-1255.74 60.39,-76.55 333.13,-204.9 461.15,-318.17 132.97,-117.63 270.87,-218.57 515.91,-213.54 174.28,3.6 404.68,115.61 519.53,208.86 1272.59,1033.44 -196.67,2224.49 735.09,2496.67 345.12,100.82 2003.96,-130.99 2670.32,253.07 -76.9,114.66 43.91,23.36 -125.7,114.57 -136.68,73.51 -1928.49,274.37 -2016.05,273.1 -298.24,-4.3 -323.25,-86.04 -648.14,77.79 -419.09,211.37 -388.23,601.79 -477.79,1208.08 -72.57,491.07 -225.91,957.61 -238.68,1447.75 -14.51,557.75 11.38,1118.58 17.85,1674.39 6.13,528.29 -186.34,954.02 -169.06,1505.07 58.4,1862.84 976.1,1557.08 1601,1644.35zm0 0c175.26,17.53 129.52,30.23 249.27,-29.14 -105.97,-262.55 -131.55,-49.37 -719.18,-117 -200.77,-23.11 -509.48,-142.64 -625.11,-266.84 -408.81,-439.2 -408.22,-1431.93 -260.42,-2057.06 206.12,-871.66 -61.58,-1377.73 51.22,-2457.37l281.55 -1450.4c113.95,-223.72 111,129.09 79.64,-259.7 -8.15,-101.18 -177.15,-685.16 488.44,-785.58 250.49,-37.8 310.03,60.3 698.28,-25.15 291.9,-64.25 517.8,-16.94 828.75,-63.93 54.82,-8.28 219.81,-57.96 314.77,-75.45 143.26,-26.38 256.44,-21.7 402.85,-43.11 337.18,-49.3 386.27,-83.31 466.08,-425.87 -146.62,-70.36 -486.58,-165.25 -690.45,-201.49 -165.52,-29.41 -258.73,-12.31 -421.7,-24.61 -211.41,-15.95 -160.21,-43.97 -366.27,-73.49l-1252.48 20.18c-287.34,-31.22 -82.36,-43.32 -335.15,-110.82l197.51 -919.03c124.62,-473.24 -169.61,-878.58 -425.23,-1194.6 -222.01,-274.47 -534.91,-662.38 -1114.66,-455.54 -372.82,132.99 -154.9,152.8 -681.57,433.74 -282.12,150.47 -306.46,476.4 -214.11,804.96 198.5,706.33 63.97,1228.91 63.97,2055.17 -418.15,0 -605.98,70.12 -953.46,105.73 -712.71,73.05 -579.96,222.54 -663.2,396 -394.06,0 -432.54,6.74 -758.94,77.24 -528.32,114.07 -486.31,117.32 -969.56,368.34l-288.75 157.24c-82.28,50.04 -388.17,392.27 -602.82,177.61 -120.25,-120.24 39.29,-322.53 -148.23,-743.68 -181.51,-407.7 36.64,-204.23 -200.18,-357.3 -444.79,-287.45 -943.87,-110.55 -1367.11,110.17 -861.02,449.03 56.34,1791.1 73.91,1851.99 318.47,1104.25 -299.65,4004.63 205.24,4867.67 284.04,485.55 1037.61,114.41 1158.1,-42.24l42.88 -68.65c327.86,-546.83 69.59,-562.57 296.72,-1654.37 172.45,-828.98 -182.42,-708.54 239.79,-1934.32 236.84,-687.54 -181.93,-674.35 714.61,-1515.23 180.44,-169.21 291.42,-154.72 441.85,-282.86 160.36,-136.62 25.62,-87.69 286.9,-270.55 549.71,-384.69 736.13,-49.45 1156.95,-236.72 240.21,-106.91 375.14,-233.3 713.85,-345.33 184.72,-61.1 377.51,-153.57 621.45,-159.01 0,441.89 49.05,947.68 -30.41,1363.26 -228.01,1192.53 31.8,1471.24 30.43,2594.7 -2.26,1827.69 98.1,1109.31 162.42,1900.17 56.09,689.48 233.47,1003.03 856.75,1261.62 178.92,74.23 294.97,163.79 439.43,229.51l831.29 234.48c210.23,25.26 368,-25.73 538.94,-127.91 182.61,-109.21 148.6,-5.21 155.15,-235.43z"/>
   <path class="fil1" d="M32574.22 13396.28c-357.12,-7.95 -683.39,-77.03 -1118.98,-57.46 -339,15.23 -627.65,162 -823.33,347.1 -465.51,440.35 -401.24,1084.38 -401.43,1940.2l-836.27 0 0.08 668.6 836.38 0 -0.19 4961.43 836.03 0 1.9 -4961.43 1113.01 0 0.17 -668.6 -1115.08 0c0,-1821.28 293.52,-1505.5 1393.64,-1505.5l114.07 -724.34z"/>
   <polygon class="fil1" points="33074.41,21256.15 33911.33,21256.15 33912.18,21200.57 33910.36,15626.12 33073.72,15626.12 "/>
   <polygon class="fil1" points="27554.66,21256.15 28390.69,21256.15 28390.69,15626.12 27554.85,15626.12 "/>
   <path class="fil1" d="M41101.18 21256.15l668.79 0c171.67,0 167.06,4.62 167.06,-167.08l0 -5462.95 -835.85 0 0 5630.03z"/>
   <path class="fil0" d="M36139.41 17967.3l0 947.68c0,814.42 605.22,1784.06 1449.57,1784.06l390.23 0c696.22,0 1266.42,-701.07 1282.33,-1393.66 1006.07,0 876.2,155.17 724.56,558.8 -393.85,1048.35 -1120.64,1528.15 -2399.45,1507.14 -2773.61,-45.53 -3034.36,-4493.86 -1069.89,-5532.94 759.17,-401.57 1492.96,-423.5 2289.87,-148.31 206.9,71.44 391.41,186.71 554.63,337.85 268.3,248.43 615.21,712.19 627.68,1214.5 -325.84,0.28 -529.62,53.16 -783.13,111.48 -296.42,-1825.52 -3066.4,-1443.24 -3066.4,613.4zm-1003.25 111.47l0 668.96c0,2731.04 2951.24,3489.1 4363.63,2133.79 339.41,-325.67 751.24,-1013.8 765.02,-1632.06 -497.35,0 -717.82,-78.44 -1114.94,-111.5 0,1957.2 -2898.8,2081.32 -2898.8,-445.96 0,-670.41 -21.68,-1154.06 335.3,-1727.34 435.66,-699.63 2117.99,-1172.15 2507.77,500.91 417.07,0 616.5,-111.48 1059.17,-111.48 0,-1038.77 -1008.64,-1951.14 -2062.6,-1951.14 -887.89,0 -1659.24,101.73 -2243.75,766.57 -365.05,415.22 -710.8,1153.66 -710.8,1909.25z"/>
   <path class="fil0" d="M32460.15 14120.62c-1100.12,0 -1393.64,-315.78 -1393.64,1505.5l1115.08 0 -0.17 668.6 -1113.01 0 -1.9 4961.43 -836.03 0 0.19 -4961.43 -836.38 0 -0.08 -668.6 836.27 0c0.19,-855.82 -64.08,-1499.85 401.43,-1940.2 195.68,-185.1 484.33,-331.87 823.33,-347.1 435.59,-19.57 761.86,49.51 1118.98,57.46l-114.07 724.34zm-2341.15 501.9l0 891.93 -891.96 0 0 891.94 891.96 0 0 4961.41 1059.16 0 0 -4961.41 1114.93 0 0 -891.94 -1114.93 0c0,-1390.16 131.35,-1282.16 1393.66,-1282.16 56,-240.36 161.29,-680.65 167.25,-947.68 -282.65,0 -303.74,-55.75 -613.21,-55.75l-780.45 0c-678.08,0 -1226.41,697 -1226.41,1393.66z"/>
   <path class="fil2" d="M8154.98 9828.33c0,218.54 -21.58,18.61 62.76,160.22 136.36,228.92 256.96,143.94 275.57,504.88 19.02,369.33 -73.6,434.9 84.72,751.47l221.19 503.54c169.98,376.82 -24.7,380 215.79,731.89 353.5,517.27 154.02,575.15 87.65,860.03 -175.74,0 -612.51,127.49 -926.03,-27.58 -232.9,-115.21 -76.58,-153.83 -47.91,-336.25 51.33,-326.51 -310.71,-130.5 -344.08,-116.76 -12.01,4.95 -26.15,14.32 -37.51,18.85 -15.06,5.99 -53.95,25.08 -67.69,28 -259.22,55.31 -1754.2,-736.9 -1754.33,-736.94 0,-88.18 -7.48,-184.95 8.32,-271.15 39.95,-217.85 53.18,-80.59 85.23,-249.06 39.78,-209.13 -63.48,-239.98 -16.31,-569.42l98.86 -1521.59c71.36,-305.17 -3.22,48.03 115.04,-219.44l210.59 -1796.28c336.35,-121.76 154.71,-323.21 251.55,-584.63 45.84,-123.75 319.6,-353.32 417.4,-418.8 150.75,647.06 493.13,807.7 572.1,1100.29 191.73,710.27 265.12,668.91 367.54,1304.85l154.29 669.44c22.46,275.67 -34.74,-68.86 -34.74,214.44zm-1702.02 -2898.8c47.24,450.81 55.5,235.2 -83.77,552.51l-289.91 1716.97c-178.27,651.19 -111.38,374.17 -160.85,1185.49 -50.38,826.1 -149.61,703.83 -111.9,1070.52 35.34,343.65 -86.34,357.57 -74.21,547.09 7.06,109.98 169.17,322.85 248.5,390.4 116.09,98.88 707.78,328.43 887.91,394.14 814.1,297 1748.02,1149.76 2330.17,594.23 507.29,-484.1 -72.81,-790.99 -169.27,-1313.01 -75.66,-409.42 -181.55,-626.04 -347.62,-983.4 -208.32,-448.23 154.12,-587.35 -228.21,-1057.7 -260.46,-320.45 -51.66,-131.01 -95.99,-459.97l-413.68 -1535.5c-99.7,-218.05 -56.53,-365.6 -137.41,-533.1 -49.51,-102.52 -205.77,-270.34 -279.4,-387.43 -150.61,-239.37 -251.85,-637.24 -431.49,-823.18l-642.87 641.94z"/>
   <path class="fil3" d="M46006.68 15514.94c759.13,0 1475.15,494.56 1825.81,904.95 850.43,995.3 804.14,3247.52 -110.23,4209.83 -1139.48,1199.21 -4492.1,1280.96 -4509.86,-2104.86 -6.53,-1247.04 321.94,-2224.39 1350.68,-2724.81 565.15,-274.91 841.58,-285.11 1443.6,-285.11zm-2898.8 2396.61c0,1133.3 -101.56,2023.06 820.95,2914.03 1269.47,1226.05 4642.17,1076.69 4642.17,-2356.58 0,-1032.78 -157.14,-1539.29 -715.67,-2238.88 -1260.82,-1579.32 -4747.45,-904.39 -4747.45,1681.43z"/>
   <path class="fil0" d="M33073.72 15626.12l836.64 0 1.82 5574.45 -0.85 55.58 -836.92 0 -0.69 -5630.03zm-111.67 5741.68l1114.93 0 0 -5853.35 -1114.93 0 0 5853.35z"/>
   <path class="fil0" d="M45449.22 23709.14l-445.98 0c-7.71,345.92 -159.54,546.04 -167.25,891.96 -166.26,-121.82 -273.12,-640.13 -278.72,-891.96l-613.21 0 0 1505.16 334.48 0 0 -1170.68c141.12,162.38 318.06,973.5 334.47,1170.68l334.48 0c13.38,-160.73 216.7,-1001.15 334.48,-1170.68l0 1170.68 334.48 0 0 -1560.88c-68.01,38.19 -59.63,55.72 -167.23,55.72z"/>
   <path class="fil0" d="M45895.18 20587.37c-1023.92,0 -1672.39,-761.83 -1672.39,-1728.14l0 -836.18c0,-794.7 612.93,-1672.39 1393.66,-1672.39 567.48,0 1046.2,-0.34 1482.68,635.68 674.96,983.57 471.95,3601.03 -1203.95,3601.03zm-1839.81 -2285.6c0,631.12 49.03,1201.38 397.41,1720.41 588.53,876.8 2006.02,933.76 2675.91,69.47 600.08,-774.22 625.72,-2606.13 -47.51,-3310.16 -1228.38,-1284.61 -3025.81,-417.64 -3025.81,1520.28z"/>
   <path class="fil0" d="M42884.88 24322.37l-167.23 0 0 -334.48 278.73 0c213.14,0 20.29,-17.13 167.22,55.73 -5.41,243.02 -36.38,278.75 -278.72,278.75zm-613.21 891.93l445.98 0 0 -613.2c340.69,7.58 432.58,316.46 501.7,613.2l501.73 0c-35.99,-134.71 -106.59,-225.48 -181.62,-375.85 -7.62,-15.28 -27.58,-61.02 -35.96,-75.54 -98.04,-169.67 -129.37,-125.42 -228.4,-273.31 480.56,-39.99 461.55,-780.46 -55.75,-780.46l-947.68 0 0 1505.16z"/>
   <path class="fil0" d="M41101.18 15626.12l835.85 0 0 5462.95c0,171.7 4.61,167.08 -167.06,167.08l-668.79 0 0 -5630.03zm-111.67 5741.68l1059.18 0 0 -5853.35 -1059.18 0 0 5853.35z"/>
   <path class="fil0" d="M27554.85 15626.12l835.84 0 0 5630.03 -836.03 0 0.19 -5630.03zm-111.67 5741.68l1059.18 0 0 -5853.35 -1059.18 0 0 5853.35z"/>
   <path class="fil0" d="M29059.82 24824.08l-445.98 55.75 0 -891.94c377.71,0 501.73,-3.77 501.73,557.46 0,71.19 -36.14,234.82 -55.75,278.73zm-891.94 390.22c1466.14,0 1337.91,-217.9 1337.91,-1003.43 0,-637.2 -786.25,-501.73 -1337.91,-501.73l0 1505.16z"/>
   <path class="fil0" d="M40878.01 24545.35c0,-892.78 668.96,-529.94 668.96,-278.73 0,421.39 47.09,613.21 -445.96,613.21 -171.38,0 -223,-163.31 -223,-334.48zm-445.95 0c0,797.01 1505.13,996.1 1505.13,0 0,-815.92 -215.3,-836.21 -947.68,-836.21 -414.37,0 -557.45,412.8 -557.45,836.21z"/>
   <polygon class="fil0" points="29840.27,25214.3 31066.68,25214.3 31066.68,24879.83 30286.23,24879.83 30286.23,24545.35 31010.93,24545.35 31010.93,24266.62 30286.23,24266.62 30286.23,23987.89 31066.68,23987.89 31066.68,23709.14 29840.27,23709.14 "/>
   <path class="fil0" d="M46564.13 24099.37c140.26,102.76 204.75,338.42 222.98,557.48l-334.48 0c6.47,-290.25 89.74,-295.92 111.5,-557.48zm-724.7 1114.93l390.22 0c47.2,-98.35 64.31,-180.37 111.5,-278.72l557.46 0c29.6,127.07 43.21,128.2 55.75,278.72l445.98 0c-95.77,-411.04 -475.92,-1195.01 -501.73,-1505.16l-557.46 0c-24.19,290.7 -471.13,1137.59 -501.72,1505.16z"/>
   <path class="fil0" d="M32014.36 24099.37c140.26,102.76 204.76,338.42 222.98,557.48l-334.47 0c5.01,-224.96 67.23,-367.49 111.49,-557.48zm-724.7 1114.93l390.23 0c47.19,-98.35 64.3,-180.37 111.5,-278.72l557.45 0c29.61,127.07 43.22,128.2 55.75,278.72l445.96 0c-97.22,-417.32 -474.46,-1177.76 -501.71,-1505.16l-557.45 0c-26.74,321.15 -470.91,1134.89 -501.73,1505.16z"/>
   <path class="fil0" d="M33017.8 24099.37c0,279.87 43.67,313.39 410.56,425.65 277.5,84.91 400.67,55.03 425.62,354.81 -155.43,87.33 -420.76,135.96 -501.7,-167.25l-390.23 0c63.27,760.2 1337.91,611.52 1337.91,0 0,-559.75 -777.89,-297.57 -891.93,-724.69 552.37,-265.05 -39.68,111.48 780.43,111.48 0,-309.89 -120.33,-481.65 -647.95,-426.32 -310.33,32.55 -522.71,99.79 -522.71,426.32z"/>
   <path class="fil0" d="M47567.56 23987.89c0,670.1 304.84,404.62 707.75,630.15 177.17,99.17 122.9,12.3 128.46,261.79 -155.45,87.33 -420.76,135.96 -501.73,-167.25l-390.23 0c67.24,807.86 1467.41,569.17 1310.46,-78.74 -84.89,-350.43 -531.54,-401.16 -864.48,-478.72 16.96,-203.74 5.9,-222.98 222.98,-222.98 243.27,0 -5.02,-9.37 106.61,60.62 12.03,7.56 51.14,37.71 65.76,45.74l72.75 38.75c110.72,39.02 246.64,22.12 368.08,22.12 -45,-93.82 -42.72,-397.18 -567.4,-431.77 -223.88,-14.77 -659.01,72.56 -659.01,320.29z"/>
   <polygon class="fil0" points="39094.14,25214.3 39540.1,25214.3 39540.1,24545.35 40097.58,24545.35 40097.58,24322.37 39540.1,24322.37 39540.1,23987.89 40209.06,23987.89 40209.06,23709.14 39094.14,23709.14 "/>
   <path class="fil0" d="M36418.32 24601.1l0 613.2 445.96 0c0,-877.92 -78.67,-555.18 557.48,-1505.16l-501.73 0c-48.35,207.62 -181.94,399.59 -334.48,501.73 -55.12,-206.44 -167.18,-262.19 -222.98,-501.73l-501.72 0c60.85,168.08 120.81,180.82 290.06,434.65 62.89,94.3 267.41,360.03 267.41,457.31z"/>
   <polygon class="fil1" points="33073.72,14455.1 33909.73,14455.1 33912.28,13507.59 33911.16,13452.03 33073.72,13452.03 "/>
   <polygon class="fil1" points="27554.85,14455.1 28390.69,14455.1 28390.69,13452.03 27554.85,13452.03 "/>
   <polygon class="fil1" points="41101.18,14455.1 41937.03,14455.1 41937.03,13452.03 41101.18,13452.03 "/>
   <polygon class="fil0" points="27387.43,25214.3 27777.66,25214.3 27777.66,23709.14 27387.43,23709.14 "/>
   <path class="fil0" d="M33073.72 13452.03l837.44 0 1.12 55.56 -2.55 947.51 -836.01 0 0 -1003.07zm-111.67 1114.74l1114.93 0 0 -1226.41 -1114.93 0 0 1226.41z"/>
   <path class="fil0" d="M41101.18 13452.03l835.85 0 0 1003.07 -835.85 0 0 -1003.07zm-111.67 1114.74l1059.18 0 0 -1226.41 -1059.18 0 0 1226.41z"/>
   <path class="fil0" d="M27554.85 13452.03l835.84 0 0 1003.07 -835.84 0 0 -1003.07zm-111.67 1114.74l1059.18 0 0 -1226.41 -1059.18 0 0 1226.41z"/>
   <path class="fil4" d="M26161.02 15124.23l0 334.47 444.35 65.28c167.95,-355.89 144.92,-112.26 168.85,-399.75 -184.84,-15.38 -305.21,-119.55 -613.2,0z"/>
   <path class="fil4" d="M3249.31 12615.65l0 167.23 241.39 93.09c7.84,4.04 24.3,13.69 37.34,18.41l59.63 -51.83c60.91,-39.1 43.67,-25.83 107.6,-59.67l0 -501.7c-203.05,16.89 -445.96,134.59 -445.96,334.47z"/>
   <path class="fil5" d="M1632.65 19360.94c338.95,89.9 72.61,74.01 390.23,0 0,-269.4 27.7,-334.48 -222.98,-334.48 -201.36,0 -167.25,140.66 -167.25,334.48z"/>
   <path class="fil6" d="M2190.13 22984.46c353.33,0 334.48,19.87 334.48,-334.48l-445.98 0c15.76,189.35 42.5,204.06 111.5,334.48z"/>
   <path class="fil2" d="M14064.07 22705.71l334.48 0 0 -278.73 -167.25 0c-182.4,0 -167.23,99.96 -167.23,278.73z"/>
  </g>
 </g>
</svg>
