<?xml version="1.0" encoding="UTF-8"?>
<!DOCTYPE svg PUBLIC "-//W3C//DTD SVG 1.1//EN" "http://www.w3.org/Graphics/SVG/1.1/DTD/svg11.dtd">
<!-- Creator: CorelDRAW 2020 (64-Bit) -->
<svg xmlns="http://www.w3.org/2000/svg" xml:space="preserve" width="2308px" height="349px" version="1.1" style="shape-rendering:geometricPrecision; text-rendering:geometricPrecision; image-rendering:optimizeQuality; fill-rule:evenodd; clip-rule:evenodd"
viewBox="0 0 2308 349.36"
 xmlns:xlink="http://www.w3.org/1999/xlink"
 xmlns:xodm="http://www.corel.com/coreldraw/odm/2003">
 <defs>
  <style type="text/css">
   <![CDATA[
    .fil3 {fill:#098CC1;fill-rule:nonzero}
    .fil2 {fill:#3E4095;fill-rule:nonzero}
    .fil1 {fill:url(#id0)}
    .fil0 {fill:url(#id1)}
   ]]>
  </style>
  <linearGradient id="id0" gradientUnits="userSpaceOnUse" x1="90.14" y1="305.98" x2="173.13" y2="209.1">
   <stop offset="0" style="stop-opacity:1; stop-color:#EEDE2C"/>
   <stop offset="0.54902" style="stop-opacity:1; stop-color:#D9C538"/>
   <stop offset="0.729412" style="stop-opacity:1; stop-color:#CCBB3C"/>
   <stop offset="1" style="stop-opacity:1; stop-color:#C3B13F"/>
  </linearGradient>
  <linearGradient id="id1" gradientUnits="userSpaceOnUse" x1="126.59" y1="127.94" x2="88.71" y2="296.65">
   <stop offset="0" style="stop-opacity:1; stop-color:#E1CB34"/>
   <stop offset="0.380392" style="stop-opacity:1; stop-color:#D4C339"/>
   <stop offset="0.639216" style="stop-opacity:1; stop-color:#BDAC3F"/>
   <stop offset="1" style="stop-opacity:1; stop-color:#978A40"/>
  </linearGradient>
 </defs>
 <g id="Capa_x0020_1">
  <metadata id="CorelCorpID_0Corel-Layer"/>
  <path class="fil0" d="M201.83 15.31c4.69,0 9.31,0.28 13.86,0.81 2.59,-2.02 1.2,-6.32 -1.92,-8.82 -13.46,-3.38 -27.54,-5.18 -42.05,-5.18 -95.11,0 -172.21,77.1 -172.21,172.21 0,95.11 77.1,172.21 172.21,172.21 95.11,0 172.21,-77.1 172.21,-172.21 0,-30.42 -7.9,-59 -21.74,-83.8 -4.55,-1.09 -7.21,0.86 -8.53,4.86 4.05,11.93 6.25,24.71 6.25,38 0,65.21 -52.86,118.08 -118.08,118.08 -65.21,0 -118.08,-52.87 -118.08,-118.08 0,-65.21 52.87,-118.08 118.08,-118.08l0 0z"/>
  <path class="fil1" d="M259.94 158.17c-18.99,-33.31 -49.88,-11 -63.53,14.16 -5.16,9.51 -9.64,21 -13.43,34.47 -8.64,30.66 -9.04,43.2 -33.18,68.8 -30.79,32.64 -69.03,33.82 -114.74,3.53 41.56,51.97 99.54,74.8 165.83,64.79 43.12,-24.93 38.54,-62.26 35.15,-105.25 -1.57,-19.98 -4.47,-55.99 6.46,-72.5 3.87,-5.86 9.47,-9.13 17.44,-8z"/>
  <path class="fil2" d="M1293.47 345.11m0 0l28.69 -51.04 20.82 0 27.93 51.04 -16.99 0 -5.13 -9.11 -32.9 0 -4.82 9.11 -17.6 0zm28.08 -19.75l21.96 0 -11.17 -20.43 -10.79 20.43zm56.47 19.75m0 0l0 -51.04 24.72 0 18.52 33.82 18.51 -33.82 24.49 0 0 51.04 -15.23 0 0.84 -39.41 -22.57 39.41 -12.4 0 -22.26 -39.41 0.38 39.41 -15 0zm99.48 0m0 0l0 -51.04 46.14 0c5.43,0 9.33,0.61 11.7,1.83 3.98,1.99 5.9,5.9 5.9,11.64 0,4.43 -1.07,7.57 -3.29,9.33 -1.3,1.07 -3.52,1.84 -6.74,2.37 4.06,0.38 6.81,1.15 8.42,2.3 2.37,1.68 3.6,4.9 3.6,9.56 0,6.05 -1.92,10.1 -5.9,12.17 -2.21,1.22 -6.04,1.84 -11.63,1.84l-48.2 0zm15.22 -30.69l26.1 0c2.52,0 4.2,-0.23 5.05,-0.61 1.3,-0.69 1.99,-1.99 1.99,-3.83 0,-2.22 -0.92,-3.59 -2.76,-4.2 -0.76,-0.23 -2.29,-0.39 -4.74,-0.39l-25.64 0 0 9.03zm0 19.36l27.78 0c2.3,0 3.9,-0.15 4.67,-0.38 1.61,-0.61 2.45,-1.99 2.45,-4.21 0,-2.3 -0.84,-3.75 -2.6,-4.36 -0.69,-0.23 -2.38,-0.38 -4.98,-0.38l-27.32 0 0 9.33zm62.75 11.33m0 0l0 -51.04 15.53 0 0 51.04 -15.53 0zm28.85 0m0 -51.04l56.54 0 0 11.55 -41.24 0 0 8.8 38.95 0 0 10.1 -38.95 0 0 9.03 41.78 0 0 11.56 -57.08 0 0 -51.04zm68.56 51.04m0 0l0 -51.04 24.71 0 30.92 38.87 -0.39 -38.87 14.69 0 0 51.04 -24.94 0 -30.45 -38.42 0.38 38.42 -14.92 0zm78.66 0m22.72 0l0 -38.42 -22.72 0 0 -12.62 60.98 0 0 12.62 -22.72 0 0 38.42 -15.54 0zm46.91 0m0 -51.04l56.55 0 0 11.55 -41.25 0 0 8.8 38.95 0 0 10.1 -38.95 0 0 9.03 41.78 0 0 11.56 -57.08 0 0 -51.04z"/>
  <path class="fil2" d="M1890.44 345.11m56.78 -36.89l-6.2 0c0,-0.3 0,-0.68 0,-1.07 -0.07,-0.38 -0.07,-0.84 -0.15,-1.22 -0.08,-1 -0.38,-1.99 -0.77,-2.99 -0.45,-0.99 -1.22,-1.68 -2.21,-2.14 -1,-0.53 -2.38,-0.92 -4.14,-1.15 -1.76,-0.23 -3.59,-0.38 -5.51,-0.46 -1.3,-0.07 -2.52,-0.07 -3.67,-0.15 -1.22,0 -2.37,0 -3.36,0l-2.15 0c-1.14,0.08 -2.45,0.08 -4.05,0.15 -1.61,0.08 -3.29,0.16 -5.05,0.31 -1.84,0.15 -3.6,0.38 -5.36,0.61 -1.76,0.31 -3.14,0.69 -4.28,1.23 -1.31,0.53 -2.15,1.37 -2.53,2.52 -0.46,1.15 -0.77,2.3 -0.84,3.6 0,0.15 0,0.3 0,0.46 0,0.15 0,0.3 0,0.46 0,3.29 0.92,5.43 2.83,6.42 1.91,1 4.28,1.54 7.19,1.61 0.46,0.08 0.92,0.08 1.38,0.08 0.46,0.07 0.92,0.07 1.45,0.07 0.46,0 0.92,0 1.38,0 0.46,0 0.92,0 1.38,0 0.99,0 2.06,0 3.06,0 0.99,0 1.99,0 2.98,-0.07 1,0 1.99,0 2.99,0 0.99,0 1.99,0 2.98,0 0.84,0 1.76,0 2.68,0 0.84,0 1.76,0 2.68,0.07 0.84,0.08 1.76,0.08 2.68,0.16 0.84,0.07 1.76,0.15 2.6,0.23 4.67,0.53 8.11,1.68 10.18,3.59 2.06,1.92 3.13,5.36 3.13,10.18 0,2.83 -0.46,5.28 -1.3,7.5 -0.84,2.22 -2.68,3.9 -5.51,5.13 -1.53,0.68 -3.37,1.22 -5.43,1.45 -2.14,0.31 -4.29,0.53 -6.5,0.61 -1.15,0.08 -2.3,0.08 -3.45,0.16 -1.15,0 -2.29,0 -3.36,0l-4.06 0c-1.3,0 -2.53,0 -3.83,0 -1.3,-0.08 -2.6,-0.08 -3.9,-0.16 -1.3,-0.08 -2.6,-0.08 -3.9,-0.15 -1.3,-0.08 -2.6,-0.23 -3.9,-0.38 -5.36,-0.69 -8.8,-2.22 -10.41,-4.44 -1.61,-2.22 -2.45,-5.89 -2.45,-11.17l6.2 -0.08 0 1.07c0,0.08 0,0.15 0,0.15 0,0.08 0,0.08 0,0.16 0.08,1.91 0.3,3.67 0.69,5.12 0.38,1.46 1.6,2.53 3.82,3.22 1.23,0.38 2.68,0.61 4.29,0.76 1.61,0.23 3.29,0.39 5.05,0.46 1.53,0.08 3.06,0.08 4.59,0.08 1.53,0.07 2.91,0.07 4.06,0.07 0.84,0 1.6,0 2.44,-0.07 0.77,0 1.53,0 2.38,0 1.6,-0.08 3.29,-0.15 4.89,-0.31 1.61,-0.07 3.14,-0.23 4.75,-0.46 2.91,-0.38 5.05,-1.14 6.42,-2.45 1.31,-1.22 1.99,-3.29 1.99,-6.27 0,-3.9 -0.99,-6.35 -2.9,-7.19 -1.99,-0.84 -4.75,-1.23 -8.34,-1.3l-11.71 -0.23c-0.46,0.07 -0.92,0.07 -1.38,0.07 -0.46,0 -0.92,0 -1.38,-0.07 -1.83,0 -3.67,0 -5.51,-0.08 -1.83,-0.08 -3.67,-0.15 -5.43,-0.23 -4.44,-0.23 -8.03,-1.15 -10.79,-2.75 -2.83,-1.61 -4.21,-4.67 -4.21,-9.34 0,-3.14 0.54,-5.89 1.61,-8.42 1,-2.44 3.06,-4.28 6.2,-5.43 1.45,-0.53 3.14,-0.92 5.05,-1.22 1.91,-0.31 3.98,-0.54 6.04,-0.61 1.84,-0.16 3.68,-0.24 5.44,-0.31 1.76,0 3.29,0 4.66,0 1.23,0 2.45,0 3.75,0 1.3,0.07 2.53,0.07 3.83,0.15 1.22,0.08 2.45,0.08 3.75,0.16 1.3,0.07 2.52,0.22 3.75,0.38 4.51,0.46 7.73,1.83 9.72,4.05 1.99,2.22 2.98,5.59 2.98,9.95l0 -0.08zm13.39 36.89m6.2 -45.84l0 16.84 42.77 0 0 5.12 -42.77 0 0 18.75 44.92 0 0 5.13 -51.12 0 0 -51.04 50.58 0 0 5.2 -44.38 0zm55.94 45.84m57.69 -20.05l-26.78 0 0 -5.13 33.21 0c0,0.38 0,0.77 0.07,1.15 0,0.38 0,0.76 0,1.15 0,0.38 0,0.76 0,1.14 0,0.39 0,0.77 0,1.15 0,7.2 -0.99,12.47 -3.06,15.92 -2.06,3.44 -7.34,5.13 -15.84,5.13l-12.55 0.07c-0.68,0 -1.45,0 -2.14,0 -0.76,0 -1.53,0 -2.29,0.08 -0.69,0 -1.46,0 -2.15,0 -0.76,0 -1.53,0 -2.29,0 -9.49,0 -15.84,-1.38 -19.05,-4.21 -3.22,-2.83 -4.82,-9.03 -4.82,-18.75l0 -2.91c0,-8.8 0.99,-15.3 3.06,-19.58 1.99,-4.21 7.8,-6.35 17.52,-6.35l12.85 -0.24c0.54,0.08 1,0.08 1.53,0.08 0.54,0 1.08,0 1.61,-0.08 0.54,0 1,0 1.53,0 0.54,0 1,0 1.53,0 0.84,0 1.76,0 2.6,0 0.84,0 1.69,0 2.53,0.08 0.84,0.08 1.68,0.08 2.52,0.08 0.84,0.08 1.69,0.15 2.53,0.23 5.05,0.38 8.57,1.68 10.48,4.05 1.91,2.38 2.99,6.05 3.06,11.02l-6.12 -0.07c0,-4.83 -1.07,-7.58 -3.29,-8.42 -2.22,-0.92 -5.36,-1.38 -9.41,-1.46 -0.08,0 -0.23,0 -0.31,0 -0.07,0 -0.23,0 -0.3,0 0,0 0,0 0,0 0,0 0,0 0,0 -0.08,0 -0.08,0 -0.08,0 0,0 0,0 0,0l-10.41 -0.15c-0.53,0.08 -0.99,0.08 -1.53,0.08 -0.53,0 -0.99,0 -1.45,-0.08 -0.54,0 -1,0 -1.53,0 -0.54,0 -1,0 -1.53,0 -0.84,0 -1.61,0 -2.45,0 -0.84,0 -1.68,0 -2.53,0.08 -0.84,0.07 -1.68,0.07 -2.52,0.07 -0.84,0.08 -1.68,0.16 -2.53,0.23 -0.07,0 -0.22,0 -0.3,0 -0.15,0.08 -0.31,0.08 -0.38,0.08 -2.84,0.23 -5.05,0.92 -6.81,1.91 -1.76,1 -2.84,3.91 -3.14,8.73 -0.08,1.07 -0.08,2.14 -0.15,3.21 -0.08,1.15 -0.08,2.22 -0.08,3.37 -0.08,1.07 -0.08,2.22 -0.08,3.29 0,1.07 0,2.22 0,3.21 0,6.28 0.54,10.56 1.69,13.09 1.14,2.44 5.05,3.75 11.86,3.82l13 0.08c0.46,0.07 0.92,0.07 1.38,0.07 0.46,0 0.92,0 1.38,0 0.46,0.08 0.92,0.08 1.38,0.08 0.46,0 0.91,0 1.37,0 0.77,0 1.53,0 2.3,0 0.69,0 1.45,0 2.22,-0.08 0.76,-0.07 1.53,-0.07 2.29,-0.15 0.69,-0.07 1.46,-0.07 2.22,-0.15 4.82,-0.54 7.65,-1.84 8.57,-3.98 0.84,-2.14 1.38,-4.97 1.53,-8.65 0,-0.38 0,-0.68 0.08,-1.14 0,-0.39 0,-0.77 0,-1.15zm18.06 20.05m53.87 -51.04l6.2 0 0 35.27c0,7.73 -1.61,12.32 -4.9,13.78 -3.29,1.45 -8.42,2.21 -15.38,2.45 -0.08,0 -0.08,0 -0.16,0 -0.07,0 -0.15,0 -0.22,0 -1.69,0.07 -3.37,0.07 -5.05,0.07 -1.76,0 -3.45,0 -5.21,0 -2.37,0 -4.82,0 -7.27,0 -2.45,-0.07 -4.89,-0.15 -7.34,-0.23 -4.98,-0.23 -8.65,-1.38 -11.02,-3.44 -2.37,-2.07 -3.52,-5.66 -3.52,-10.71l0 -37.19 6.2 0 0 36.42c0,4.44 0.99,7.12 3.06,8.03 2.06,1 5.05,1.54 9.1,1.61l10.95 0.08 11.86 -0.23c4.2,-0.08 7.42,-0.54 9.56,-1.53 2.07,-1 3.14,-3.75 3.14,-8.42l0 -1.22 0 -34.74zm19.97 51.04m0 -51.04l41.55 0c5.74,0.07 10.1,0.99 13.01,2.91 2.83,1.91 4.28,6.04 4.28,12.32 0,4.51 -0.69,7.57 -1.99,9.33 -1.38,1.76 -4.36,2.98 -8.87,3.67 2.98,0.39 5.35,1.07 7.19,2.22 1.84,1.15 2.75,3.45 2.75,6.81l0 13.78 -6.12 0 0 -11.33c0,-3.9 -0.84,-6.43 -2.52,-7.57 -1.76,-1.15 -4.52,-1.69 -8.27,-1.69l-34.81 0 0 20.59 -6.2 0 0 -51.04zm6.2 25.25l34.2 0c4.36,0.08 7.42,-0.61 9.26,-1.91 1.84,-1.3 2.75,-4.14 2.75,-8.5 0,-4.28 -1.07,-6.96 -3.13,-8.03 -2.07,-1 -5.13,-1.53 -9.03,-1.53l-34.05 0 0 19.97zm63.35 25.79m0 -25.18c0,-0.76 0,-1.61 0,-2.52 0,-0.85 0,-1.69 0.08,-2.45 0,-1.76 0.08,-3.52 0.23,-5.21 0.15,-1.76 0.38,-3.44 0.77,-5.05 0.99,-4.59 3.13,-7.49 6.27,-8.8 3.14,-1.3 6.73,-2.06 10.79,-2.14 1.91,-0.08 3.75,-0.08 5.66,-0.15 1.91,0 3.75,0 5.66,0 1.84,0 3.68,0 5.59,0 1.91,0 3.75,0 5.66,0 10.64,0 17.45,1.38 20.43,4.21 2.99,2.75 4.44,9.41 4.44,19.74 0,2.29 0,4.59 -0.08,6.89 -0.07,2.29 -0.23,4.59 -0.46,6.88 -0.53,4.9 -1.98,8.34 -4.51,10.33 -2.52,1.99 -6.2,3.14 -11.1,3.52 -2.06,0.23 -4.2,0.31 -6.27,0.39 -2.14,0 -4.28,0 -6.35,0l-11.4 0c-1.76,0 -3.6,0 -5.36,-0.08 -1.83,-0.08 -3.67,-0.16 -5.43,-0.38 -0.23,-0.08 -0.54,-0.08 -0.77,-0.08 -0.3,0 -0.61,0 -0.84,-0.08 -1.91,-0.3 -3.82,-0.84 -5.58,-1.68 -1.76,-0.77 -3.22,-1.99 -4.36,-3.75 -0.85,-1.38 -1.54,-2.98 -1.92,-4.9 -0.38,-1.91 -0.69,-3.75 -0.84,-5.74 -0.15,-1.53 -0.23,-3.13 -0.23,-4.66 -0.08,-1.53 -0.08,-2.91 -0.08,-4.21l0 -0.08zm6.43 -0.15l0 3.75c0,5.58 0.61,9.72 1.76,12.39 1.15,2.68 4.9,4.06 11.25,4.14l13.16 0.15 4.75 0c0.99,0.07 2.06,0.07 3.13,0.07 1,0 2.07,0 3.14,-0.07 0.99,-0.08 2.07,-0.08 3.14,-0.15 0.99,-0.08 2.06,-0.16 3.06,-0.23 4.05,-0.39 6.66,-1.76 7.65,-4.14 0.99,-2.37 1.53,-5.28 1.53,-8.87 0,-0.84 0,-1.76 0.08,-2.6 0,-0.85 0,-1.76 0,-2.68 0.07,-0.84 0.07,-1.76 0.07,-2.6 0,-0.84 0,-1.76 0,-2.6 0,-0.77 0,-1.61 0,-2.53 -0.07,-0.84 -0.07,-1.76 -0.15,-2.6 -0.08,-1.76 -0.31,-3.37 -0.54,-4.98 -0.3,-1.6 -0.76,-2.83 -1.45,-3.82 -0.38,-0.54 -0.84,-1.07 -1.38,-1.46 -0.61,-0.38 -1.22,-0.61 -1.83,-0.84 -0.08,-0.07 -0.08,-0.07 -0.16,-0.15 -0.07,0 -0.23,0 -0.3,0 -0.84,-0.23 -1.69,-0.46 -2.6,-0.54 -0.92,-0.07 -1.84,-0.15 -2.76,-0.23 -0.53,-0.07 -1.07,-0.07 -1.61,-0.07 -0.53,0 -1.07,0 -1.6,0l-12.02 -0.15 -11.86 0.22c-5.51,0.08 -9.18,0.85 -11.09,2.22 -1.91,1.46 -2.99,5.05 -3.14,10.79l-0.23 7.58z"/>
  <path class="fil3" d="M392.27 260.06m0 -244.26l270.62 0 0 55.3 -197.38 0 0 42.11 186.4 0 0 48.34 -186.4 0 0 43.21 199.95 0 0 55.3 -273.19 0 0 -244.26z"/>
  <path class="fil3" d="M695.04 260.06m0 0l0 -244.26 118.28 0 147.95 186.03 -1.83 -186.03 70.31 0 0 244.26 -119.38 0 -145.75 -183.84 1.83 183.84 -71.41 0z"/>
  <path class="fil2" d="M1061.86 258.23m1.09 -77.64l72.88 0c0,6.96 0.73,11.72 1.83,14.28 1.47,4.76 5.13,8.06 10.25,9.89 4.03,1.46 10.62,2.2 19.78,2.2l28.93 1.1c4.39,0 22.34,0 54.56,-0.74 13.19,-0.36 22.34,-1.1 27.47,-2.93 9.89,-3.29 14.65,-9.88 14.65,-19.77 0,-12.45 -6.96,-19.41 -21.61,-21.24 -3.3,-0.73 -15.75,-0.73 -37.35,-0.73l-67.38 0c-32.96,0 -55.3,-1.83 -67.02,-5.5 -15.01,-4.39 -25.27,-13.18 -31.13,-25.63 -4.76,-9.89 -6.95,-23.44 -6.95,-41.02 0,-28.56 6.59,-47.97 19.77,-58.59 10.99,-9.15 31.49,-15.01 61.89,-17.94 11.72,-1.1 35.52,-1.47 71.04,-1.47 50.91,0 82.77,1.47 95.58,4.4 17.21,3.66 29.66,10.98 36.62,21.6 6.59,9.52 9.89,23.44 9.89,41.75l0 8.42 -72.51 0c0,-12.81 -6.59,-20.14 -20.14,-23.07 -2.56,-0.36 -14.65,-0.73 -35.52,-0.73 -29.3,0 -51.64,0.37 -67.38,1.46 -8.79,0.74 -14.65,1.84 -18.31,4.03 -5.5,3.3 -8.06,8.43 -8.06,16.12 0,10.25 5.13,16.84 15.75,19.4 4.39,1.1 14.65,1.84 30.03,1.84l69.21 0c4.76,0 16.84,0.36 36.62,1.09 23.07,0.74 39.18,3.3 48.7,6.96 21.24,9.16 31.86,31.13 31.86,66.65 0,32.96 -8.79,54.2 -26.73,63.72 -16.84,9.16 -60.06,13.92 -130,13.92 -53.47,0 -88.26,-1.83 -104.73,-5.13 -16.12,-3.3 -27.47,-10.62 -34.43,-21.24 -5.49,-9.52 -8.42,-22.7 -8.42,-40.28 0,-2.2 0,-6.23 0.36,-12.82z"/>
  <path class="fil2" d="M1367.42 260.06m0 0l137.33 -244.26 99.6 0 133.67 244.26 -81.3 0 -24.53 -43.58 -157.47 0 -23.07 43.58 -84.23 0zm134.4 -94.48l105.1 0 -53.47 -97.78 -51.63 97.78z"/>
  <path class="fil2" d="M1747.74 260.06m0 0l0 -244.26 259.27 0 0 55.3 -185.3 0 0 48.7 175.78 0 0 55.3 -175.78 0 0 84.96 -73.97 0z"/>
  <path class="fil2" d="M2034.41 260.06m0 -244.26l270.62 0 0 55.3 -197.38 0 0 42.11 186.4 0 0 48.34 -186.4 0 0 43.21 199.95 0 0 55.3 -273.19 0 0 -244.26z"/>
 </g>
</svg>
